<svg width="254" height="254" viewBox="0 0 254 254" fill="none" xmlns="http://www.w3.org/2000/svg">
<g clip-path="url(#clip0_4_342)">
<mask id="mask0_4_342" style="mask-type:luminance" maskUnits="userSpaceOnUse" x="-25" y="-269" width="596" height="843">
<path d="M570.28 -268.08H-25V573.81H570.28V-268.08Z" fill="white"/>
</mask>
<g mask="url(#mask0_4_342)">
<path d="M188.24 65.28V243.36H38V65.28H43.34C43.34 64.44 43.28 63.59 43.28 62.74C43.28 28.09 74.01 -1.52588e-05 111.92 -1.52588e-05C149.83 -1.52588e-05 180.56 28.09 180.56 62.74C180.56 63.59 180.56 64.44 180.5 65.28H188.24Z" fill="#A65C23"/>
</g>
<mask id="mask1_4_342" style="mask-type:luminance" maskUnits="userSpaceOnUse" x="-25" y="-269" width="596" height="843">
<path d="M570.28 -268.08H-25V573.81H570.28V-268.08Z" fill="white"/>
</mask>
<g mask="url(#mask1_4_342)">
<path d="M171 64.32H54.2C54.2 33.5 80.34 8.52002 112.58 8.52002C144.82 8.52002 170.96 33.52 170.96 64.32" fill="white"/>
<path d="M45.2 74.4H180.08" stroke="white" stroke-width="2" stroke-miterlimit="10"/>
<path d="M180.08 95.04H45.2V140.64H180.08V95.04Z" fill="white"/>
<path d="M180.08 95.04H45.2V140.64H180.08V95.04Z" stroke="white" stroke-width="2" stroke-miterlimit="10"/>
<path d="M180.08 174.36H45.2V219.96H180.08V174.36Z" fill="white"/>
<path d="M180.08 174.36H45.2V219.96H180.08V174.36Z" stroke="white" stroke-width="2" stroke-miterlimit="10"/>
</g>
<mask id="mask2_4_342" style="mask-type:luminance" maskUnits="userSpaceOnUse" x="-25" y="-269" width="596" height="843">
<path d="M570.28 -268.08H-25V573.81H570.28V-268.08Z" fill="white"/>
</mask>
<g mask="url(#mask2_4_342)">
<path d="M67.76 99.05C67.7599 98.6665 67.6466 98.2915 67.4345 97.972C67.2224 97.6525 66.9207 97.4026 66.5673 97.2537C66.2139 97.1048 65.8244 97.0633 65.4476 97.1346C65.0707 97.2059 64.7233 97.3867 64.4487 97.6544C64.1741 97.9222 63.9845 98.2649 63.9037 98.6398C63.823 99.0147 63.8545 99.4051 63.9945 99.7622C64.1344 100.119 64.3766 100.427 64.6906 100.647C65.0046 100.867 65.3766 100.99 65.76 101C66.0206 101.008 66.2802 100.963 66.5232 100.869C66.7662 100.774 66.9876 100.632 67.1743 100.45C67.361 100.268 67.5091 100.05 67.6097 99.8096C67.7104 99.5691 67.7615 99.3107 67.76 99.05Z" fill="#A65C23"/>
<path d="M67.76 99.05C67.7599 98.6665 67.6466 98.2915 67.4345 97.972C67.2224 97.6525 66.9207 97.4026 66.5673 97.2537C66.2139 97.1048 65.8244 97.0633 65.4476 97.1346C65.0707 97.2059 64.7233 97.3867 64.4487 97.6544C64.1741 97.9222 63.9845 98.2649 63.9037 98.6398C63.823 99.0147 63.8545 99.4051 63.9945 99.7622C64.1344 100.119 64.3766 100.427 64.6906 100.647C65.0046 100.867 65.3766 100.99 65.76 101C66.0206 101.008 66.2802 100.963 66.5232 100.869C66.7662 100.774 66.9876 100.632 67.1743 100.45C67.361 100.268 67.5091 100.05 67.6097 99.8096C67.7104 99.5691 67.7615 99.3107 67.76 99.05Z" stroke="#A65C23" stroke-miterlimit="10"/>
<path d="M162.83 99.05C162.84 98.6524 162.731 98.2609 162.518 97.9255C162.304 97.5901 161.995 97.326 161.631 97.167C161.266 97.0079 160.863 96.9611 160.471 97.0325C160.08 97.1039 159.719 97.2904 159.434 97.568C159.15 97.8456 158.954 98.2018 158.873 98.591C158.792 98.9803 158.828 99.385 158.978 99.7534C159.128 100.122 159.384 100.437 159.714 100.659C160.044 100.881 160.432 101 160.83 101C161.352 101 161.853 100.796 162.227 100.432C162.6 100.068 162.817 99.5717 162.83 99.05Z" fill="#A65C23"/>
<path d="M162.83 99.05C162.84 98.6524 162.731 98.2609 162.518 97.9255C162.304 97.5901 161.995 97.326 161.631 97.167C161.266 97.0079 160.863 96.9611 160.471 97.0325C160.08 97.1039 159.719 97.2904 159.434 97.568C159.15 97.8456 158.954 98.2018 158.873 98.591C158.792 98.9803 158.828 99.385 158.978 99.7534C159.128 100.122 159.384 100.437 159.714 100.659C160.044 100.881 160.432 101 160.83 101C161.352 101 161.853 100.796 162.227 100.432C162.6 100.068 162.817 99.5717 162.83 99.05Z" stroke="#A65C23" stroke-miterlimit="10"/>
<path d="M152.27 99.41C152.28 99.0124 152.171 98.621 151.958 98.2855C151.744 97.9501 151.435 97.686 151.071 97.527C150.706 97.3679 150.303 97.3211 149.911 97.3925C149.52 97.4639 149.159 97.6504 148.874 97.928C148.59 98.2056 148.394 98.5618 148.313 98.951C148.232 99.3403 148.268 99.745 148.418 100.113C148.568 100.482 148.824 100.797 149.154 101.019C149.484 101.241 149.872 101.36 150.27 101.36C150.531 101.368 150.79 101.324 151.033 101.229C151.276 101.134 151.498 100.992 151.684 100.81C151.871 100.628 152.019 100.41 152.12 100.17C152.22 99.9291 152.271 99.6707 152.27 99.41Z" fill="#A65C23"/>
<path d="M152.27 99.41C152.28 99.0124 152.171 98.621 151.958 98.2855C151.744 97.9501 151.435 97.686 151.071 97.527C150.706 97.3679 150.303 97.3211 149.911 97.3925C149.52 97.4639 149.159 97.6504 148.874 97.928C148.59 98.2056 148.394 98.5618 148.313 98.951C148.232 99.3403 148.268 99.745 148.418 100.113C148.568 100.482 148.824 100.797 149.154 101.019C149.484 101.241 149.872 101.36 150.27 101.36C150.531 101.368 150.79 101.324 151.033 101.229C151.276 101.134 151.498 100.992 151.684 100.81C151.871 100.628 152.019 100.41 152.12 100.17C152.22 99.9291 152.271 99.6707 152.27 99.41Z" stroke="#A65C23" stroke-miterlimit="10"/>
<path d="M140.75 99.05C140.75 98.6643 140.636 98.2873 140.421 97.9666C140.207 97.6459 139.903 97.396 139.546 97.2484C139.19 97.1008 138.798 97.0622 138.42 97.1374C138.041 97.2127 137.694 97.3984 137.421 97.6711C137.148 97.9438 136.963 98.2913 136.887 98.6696C136.812 99.0478 136.851 99.4399 136.998 99.7962C137.146 100.153 137.396 100.457 137.717 100.671C138.037 100.886 138.414 101 138.8 101C139.056 101.001 139.311 100.952 139.548 100.854C139.785 100.757 140 100.613 140.182 100.432C140.363 100.25 140.507 100.035 140.604 99.7978C140.702 99.5606 140.751 99.3064 140.75 99.05Z" fill="#A65C23"/>
<path d="M140.75 99.05C140.75 98.6643 140.636 98.2873 140.421 97.9666C140.207 97.6459 139.903 97.396 139.546 97.2484C139.19 97.1008 138.798 97.0622 138.42 97.1374C138.041 97.2127 137.694 97.3984 137.421 97.6711C137.148 97.9438 136.963 98.2913 136.887 98.6696C136.812 99.0478 136.851 99.4399 136.998 99.7962C137.146 100.153 137.396 100.457 137.717 100.671C138.037 100.886 138.414 101 138.8 101C139.056 101.001 139.311 100.952 139.548 100.854C139.785 100.757 140 100.613 140.182 100.432C140.363 100.25 140.507 100.035 140.604 99.7978C140.702 99.5606 140.751 99.3064 140.75 99.05Z" stroke="#A65C23" stroke-miterlimit="10"/>
<path d="M130.67 99.36C130.67 98.9743 130.556 98.5973 130.341 98.2766C130.127 97.9559 129.823 97.706 129.466 97.5584C129.11 97.4108 128.718 97.3722 128.34 97.4474C127.961 97.5227 127.614 97.7084 127.341 97.9811C127.068 98.2538 126.883 98.6013 126.807 98.9795C126.732 99.3578 126.771 99.7499 126.918 100.106C127.066 100.463 127.316 100.767 127.637 100.981C127.957 101.196 128.334 101.31 128.72 101.31C129.233 101.297 129.722 101.088 130.085 100.725C130.448 100.362 130.657 99.8732 130.67 99.36Z" fill="#A65C23"/>
<path d="M130.67 99.36C130.67 98.9743 130.556 98.5973 130.341 98.2766C130.127 97.9559 129.823 97.706 129.466 97.5584C129.11 97.4108 128.718 97.3722 128.34 97.4474C127.961 97.5227 127.614 97.7084 127.341 97.9811C127.068 98.2538 126.883 98.6013 126.807 98.9795C126.732 99.3578 126.771 99.7499 126.918 100.106C127.066 100.463 127.316 100.767 127.637 100.981C127.957 101.196 128.334 101.31 128.72 101.31C129.233 101.297 129.722 101.088 130.085 100.725C130.448 100.362 130.657 99.8732 130.67 99.36Z" stroke="#A65C23" stroke-miterlimit="10"/>
<path d="M99.47 99.05C99.4799 98.6524 99.3711 98.2609 99.1575 97.9255C98.9439 97.5901 98.6351 97.326 98.2706 97.167C97.9062 97.0079 97.5026 96.9611 97.1114 97.0325C96.7202 97.1039 96.3591 97.2904 96.0744 97.568C95.7897 97.8456 95.5942 98.2018 95.5129 98.591C95.4316 98.9803 95.4681 99.385 95.6179 99.7534C95.7677 100.122 96.0239 100.437 96.3538 100.659C96.6837 100.881 97.0723 101 97.47 101C97.9919 101 98.4931 100.796 98.8668 100.432C99.2405 100.068 99.4569 99.5717 99.47 99.05Z" fill="#A65C23"/>
<path d="M99.47 99.05C99.4799 98.6524 99.3711 98.2609 99.1575 97.9255C98.9439 97.5901 98.6351 97.326 98.2706 97.167C97.9062 97.0079 97.5026 96.9611 97.1114 97.0325C96.7202 97.1039 96.3591 97.2904 96.0744 97.568C95.7897 97.8456 95.5942 98.2018 95.5129 98.591C95.4316 98.9803 95.4681 99.385 95.6179 99.7534C95.7677 100.122 96.0239 100.437 96.3538 100.659C96.6837 100.881 97.0723 101 97.47 101C97.9919 101 98.4931 100.796 98.8668 100.432C99.2405 100.068 99.4569 99.5717 99.47 99.05Z" stroke="#A65C23" stroke-miterlimit="10"/>
<path d="M88.43 99.36C88.4399 98.9624 88.3311 98.571 88.1175 98.2356C87.9039 97.9002 87.5951 97.636 87.2306 97.477C86.8662 97.3179 86.4626 97.2711 86.0714 97.3425C85.6802 97.4139 85.3191 97.6004 85.0344 97.878C84.7497 98.1556 84.5542 98.5118 84.4729 98.901C84.3915 99.2903 84.4281 99.695 84.5779 100.063C84.7277 100.432 84.9839 100.747 85.3138 100.969C85.6437 101.191 86.0323 101.31 86.43 101.31C86.9519 101.31 87.4531 101.106 87.8268 100.742C88.2005 100.378 88.4169 99.8817 88.43 99.36Z" fill="#A65C23"/>
<path d="M88.43 99.36C88.4399 98.9624 88.3311 98.571 88.1175 98.2356C87.9039 97.9002 87.5951 97.636 87.2306 97.477C86.8662 97.3179 86.4626 97.2711 86.0714 97.3425C85.6802 97.4139 85.3191 97.6004 85.0344 97.878C84.7497 98.1556 84.5542 98.5118 84.4729 98.901C84.3915 99.2903 84.4281 99.695 84.5779 100.063C84.7277 100.432 84.9839 100.747 85.3138 100.969C85.6437 101.191 86.0323 101.31 86.43 101.31C86.9519 101.31 87.4531 101.106 87.8268 100.742C88.2005 100.378 88.4169 99.8817 88.43 99.36Z" stroke="#A65C23" stroke-miterlimit="10"/>
<path d="M77.87 99.11C77.8819 98.7121 77.7748 98.3197 77.5625 97.983C77.3501 97.6463 77.0421 97.3806 76.6778 97.22C76.3136 97.0594 75.9097 97.0111 75.5179 97.0814C75.1261 97.1517 74.7641 97.3372 74.4784 97.6144C74.1926 97.8916 73.9961 98.2477 73.9139 98.6372C73.8318 99.0267 73.8677 99.4319 74.0172 99.8008C74.1666 100.17 74.4228 100.486 74.7529 100.708C75.0829 100.931 75.4719 101.05 75.87 101.05C76.3902 101.05 76.89 100.848 77.2634 100.486C77.6368 100.123 77.8544 99.6299 77.87 99.11Z" fill="#A65C23"/>
<path d="M77.87 99.11C77.8819 98.7121 77.7748 98.3197 77.5625 97.983C77.3501 97.6463 77.0421 97.3806 76.6778 97.22C76.3136 97.0594 75.9097 97.0111 75.5179 97.0814C75.1261 97.1517 74.7641 97.3372 74.4784 97.6144C74.1926 97.8916 73.9961 98.2477 73.9139 98.6372C73.8318 99.0267 73.8677 99.4319 74.0172 99.8008C74.1666 100.17 74.4228 100.486 74.7529 100.708C75.0829 100.931 75.4719 101.05 75.87 101.05C76.3902 101.05 76.89 100.848 77.2634 100.486C77.6368 100.123 77.8544 99.6299 77.87 99.11Z" stroke="#A65C23" stroke-miterlimit="10"/>
<path d="M67.76 179.09C67.7599 178.706 67.6466 178.332 67.4345 178.012C67.2224 177.692 66.9207 177.443 66.5673 177.294C66.2139 177.145 65.8244 177.103 65.4476 177.175C65.0707 177.246 64.7233 177.427 64.4487 177.694C64.1741 177.962 63.9845 178.305 63.9037 178.68C63.823 179.055 63.8545 179.445 63.9945 179.802C64.1344 180.159 64.3766 180.467 64.6906 180.687C65.0046 180.907 65.3766 181.03 65.76 181.04C66.0206 181.048 66.2802 181.004 66.5232 180.909C66.7662 180.814 66.9876 180.672 67.1743 180.49C67.361 180.308 67.5091 180.09 67.6097 179.85C67.7104 179.609 67.7615 179.351 67.76 179.09Z" fill="#A65C23"/>
<path d="M67.76 179.09C67.7599 178.706 67.6466 178.332 67.4345 178.012C67.2224 177.692 66.9207 177.443 66.5673 177.294C66.2139 177.145 65.8244 177.103 65.4476 177.175C65.0707 177.246 64.7233 177.427 64.4487 177.694C64.1741 177.962 63.9845 178.305 63.9037 178.68C63.823 179.055 63.8545 179.445 63.9945 179.802C64.1344 180.159 64.3766 180.467 64.6906 180.687C65.0046 180.907 65.3766 181.03 65.76 181.04C66.0206 181.048 66.2802 181.004 66.5232 180.909C66.7662 180.814 66.9876 180.672 67.1743 180.49C67.361 180.308 67.5091 180.09 67.6097 179.85C67.7104 179.609 67.7615 179.351 67.76 179.09Z" stroke="#A65C23" stroke-miterlimit="10"/>
<path d="M162.83 179.09C162.84 178.692 162.731 178.301 162.518 177.966C162.304 177.63 161.995 177.366 161.631 177.207C161.266 177.048 160.863 177.001 160.471 177.073C160.08 177.144 159.719 177.33 159.434 177.608C159.15 177.886 158.954 178.242 158.873 178.631C158.792 179.02 158.828 179.425 158.978 179.793C159.128 180.162 159.384 180.477 159.714 180.699C160.044 180.921 160.432 181.04 160.83 181.04C161.352 181.04 161.853 180.836 162.227 180.472C162.6 180.108 162.817 179.612 162.83 179.09Z" fill="#A65C23"/>
<path d="M162.83 179.09C162.84 178.692 162.731 178.301 162.518 177.966C162.304 177.63 161.995 177.366 161.631 177.207C161.266 177.048 160.863 177.001 160.471 177.073C160.08 177.144 159.719 177.33 159.434 177.608C159.15 177.886 158.954 178.242 158.873 178.631C158.792 179.02 158.828 179.425 158.978 179.793C159.128 180.162 159.384 180.477 159.714 180.699C160.044 180.921 160.432 181.04 160.83 181.04C161.352 181.04 161.853 180.836 162.227 180.472C162.6 180.108 162.817 179.612 162.83 179.09Z" stroke="#A65C23" stroke-miterlimit="10"/>
<path d="M152.27 179.45C152.27 179.054 152.153 178.668 151.933 178.339C151.713 178.01 151.401 177.754 151.035 177.602C150.67 177.451 150.268 177.411 149.88 177.488C149.492 177.566 149.135 177.756 148.856 178.036C148.576 178.315 148.386 178.672 148.308 179.06C148.231 179.448 148.271 179.85 148.422 180.215C148.574 180.581 148.83 180.893 149.159 181.113C149.488 181.333 149.874 181.45 150.27 181.45C150.535 181.458 150.799 181.412 151.045 181.315C151.291 181.217 151.515 181.07 151.703 180.883C151.89 180.695 152.037 180.472 152.135 180.225C152.232 179.979 152.278 179.715 152.27 179.45Z" fill="#A65C23"/>
<path d="M152.27 179.45C152.27 179.054 152.153 178.668 151.933 178.339C151.713 178.01 151.401 177.754 151.035 177.602C150.67 177.451 150.268 177.411 149.88 177.488C149.492 177.566 149.135 177.756 148.856 178.036C148.576 178.315 148.386 178.672 148.308 179.06C148.231 179.448 148.271 179.85 148.422 180.215C148.574 180.581 148.83 180.893 149.159 181.113C149.488 181.333 149.874 181.45 150.27 181.45C150.535 181.458 150.799 181.412 151.045 181.315C151.291 181.217 151.515 181.07 151.703 180.883C151.89 180.695 152.037 180.472 152.135 180.225C152.232 179.979 152.278 179.715 152.27 179.45Z" stroke="#A65C23" stroke-miterlimit="10"/>
<path d="M140.75 179.09C140.75 178.704 140.636 178.327 140.421 178.007C140.207 177.686 139.903 177.436 139.546 177.288C139.19 177.141 138.798 177.102 138.42 177.177C138.041 177.253 137.694 177.438 137.421 177.711C137.148 177.984 136.963 178.331 136.887 178.71C136.812 179.088 136.851 179.48 136.998 179.836C137.146 180.193 137.396 180.497 137.717 180.711C138.037 180.926 138.414 181.04 138.8 181.04C139.056 181.041 139.311 180.992 139.548 180.894C139.785 180.797 140 180.653 140.182 180.472C140.363 180.29 140.507 180.075 140.604 179.838C140.702 179.601 140.751 179.346 140.75 179.09Z" fill="#A65C23"/>
<path d="M140.75 179.09C140.75 178.704 140.636 178.327 140.421 178.007C140.207 177.686 139.903 177.436 139.546 177.288C139.19 177.141 138.798 177.102 138.42 177.177C138.041 177.253 137.694 177.438 137.421 177.711C137.148 177.984 136.963 178.331 136.887 178.71C136.812 179.088 136.851 179.48 136.998 179.836C137.146 180.193 137.396 180.497 137.717 180.711C138.037 180.926 138.414 181.04 138.8 181.04C139.056 181.041 139.311 180.992 139.548 180.894C139.785 180.797 140 180.653 140.182 180.472C140.363 180.29 140.507 180.075 140.604 179.838C140.702 179.601 140.751 179.346 140.75 179.09Z" stroke="#A65C23" stroke-miterlimit="10"/>
<path d="M130.67 179.4C130.67 179.014 130.556 178.637 130.341 178.317C130.127 177.996 129.823 177.746 129.466 177.598C129.11 177.451 128.718 177.412 128.34 177.487C127.961 177.563 127.614 177.748 127.341 178.021C127.068 178.294 126.883 178.641 126.807 179.02C126.732 179.398 126.771 179.79 126.918 180.146C127.066 180.503 127.316 180.807 127.637 181.021C127.957 181.236 128.334 181.35 128.72 181.35C129.233 181.337 129.722 181.128 130.085 180.765C130.448 180.402 130.657 179.913 130.67 179.4Z" fill="#A65C23"/>
<path d="M130.67 179.4C130.67 179.014 130.556 178.637 130.341 178.317C130.127 177.996 129.823 177.746 129.466 177.598C129.11 177.451 128.718 177.412 128.34 177.487C127.961 177.563 127.614 177.748 127.341 178.021C127.068 178.294 126.883 178.641 126.807 179.02C126.732 179.398 126.771 179.79 126.918 180.146C127.066 180.503 127.316 180.807 127.637 181.021C127.957 181.236 128.334 181.35 128.72 181.35C129.233 181.337 129.722 181.128 130.085 180.765C130.448 180.402 130.657 179.913 130.67 179.4Z" stroke="#A65C23" stroke-miterlimit="10"/>
<path d="M99.47 179.09C99.4799 178.692 99.3711 178.301 99.1575 177.966C98.9439 177.63 98.6351 177.366 98.2706 177.207C97.9062 177.048 97.5026 177.001 97.1114 177.073C96.7202 177.144 96.3591 177.33 96.0744 177.608C95.7897 177.886 95.5942 178.242 95.5129 178.631C95.4316 179.02 95.4681 179.425 95.6179 179.793C95.7677 180.162 96.0239 180.477 96.3538 180.699C96.6837 180.921 97.0723 181.04 97.47 181.04C97.9919 181.04 98.4931 180.836 98.8668 180.472C99.2405 180.108 99.4569 179.612 99.47 179.09Z" fill="#A65C23"/>
<path d="M99.47 179.09C99.4799 178.692 99.3711 178.301 99.1575 177.966C98.9439 177.63 98.6351 177.366 98.2706 177.207C97.9062 177.048 97.5026 177.001 97.1114 177.073C96.7202 177.144 96.3591 177.33 96.0744 177.608C95.7897 177.886 95.5942 178.242 95.5129 178.631C95.4316 179.02 95.4681 179.425 95.6179 179.793C95.7677 180.162 96.0239 180.477 96.3538 180.699C96.6837 180.921 97.0723 181.04 97.47 181.04C97.9919 181.04 98.4931 180.836 98.8668 180.472C99.2405 180.108 99.4569 179.612 99.47 179.09Z" stroke="#A65C23" stroke-miterlimit="10"/>
<path d="M88.43 179.4C88.4399 179.002 88.3311 178.611 88.1175 178.276C87.9039 177.94 87.5951 177.676 87.2306 177.517C86.8662 177.358 86.4626 177.311 86.0714 177.383C85.6802 177.454 85.3191 177.64 85.0344 177.918C84.7497 178.196 84.5542 178.552 84.4729 178.941C84.3915 179.33 84.4281 179.735 84.5779 180.103C84.7277 180.472 84.9839 180.787 85.3138 181.009C85.6437 181.231 86.0323 181.35 86.43 181.35C86.9519 181.35 87.4531 181.146 87.8268 180.782C88.2005 180.418 88.4169 179.922 88.43 179.4Z" fill="#A65C23"/>
<path d="M88.43 179.4C88.4399 179.002 88.3311 178.611 88.1175 178.276C87.9039 177.94 87.5951 177.676 87.2306 177.517C86.8662 177.358 86.4626 177.311 86.0714 177.383C85.6802 177.454 85.3191 177.64 85.0344 177.918C84.7497 178.196 84.5542 178.552 84.4729 178.941C84.3915 179.33 84.4281 179.735 84.5779 180.103C84.7277 180.472 84.9839 180.787 85.3138 181.009C85.6437 181.231 86.0323 181.35 86.43 181.35C86.9519 181.35 87.4531 181.146 87.8268 180.782C88.2005 180.418 88.4169 179.922 88.43 179.4Z" stroke="#A65C23" stroke-miterlimit="10"/>
<path d="M77.87 179.15C77.8819 178.752 77.7748 178.36 77.5625 178.023C77.3501 177.686 77.0421 177.421 76.6778 177.26C76.3136 177.099 75.9097 177.051 75.5179 177.121C75.1261 177.192 74.7641 177.377 74.4784 177.654C74.1926 177.932 73.9961 178.288 73.9139 178.677C73.8318 179.067 73.8677 179.472 74.0172 179.841C74.1666 180.21 74.4228 180.526 74.7529 180.748C75.0829 180.971 75.4719 181.09 75.87 181.09C76.3902 181.09 76.89 180.888 77.2634 180.526C77.6368 180.163 77.8544 179.67 77.87 179.15Z" fill="#A65C23"/>
<path d="M77.87 179.15C77.8819 178.752 77.7748 178.36 77.5625 178.023C77.3501 177.686 77.0421 177.421 76.6778 177.26C76.3136 177.099 75.9097 177.051 75.5179 177.121C75.1261 177.192 74.7641 177.377 74.4784 177.654C74.1926 177.932 73.9961 178.288 73.9139 178.677C73.8318 179.067 73.8677 179.472 74.0172 179.841C74.1666 180.21 74.4228 180.526 74.7529 180.748C75.0829 180.971 75.4719 181.09 75.87 181.09C76.3902 181.09 76.89 180.888 77.2634 180.526C77.6368 180.163 77.8544 179.67 77.87 179.15Z" stroke="#A65C23" stroke-miterlimit="10"/>
</g>
<path d="M65.88 134.88V99.36" stroke="#A65C23" stroke-width="5" stroke-miterlimit="10"/>
<path d="M128.72 214.92V179.4" stroke="#A65C23" stroke-width="5" stroke-miterlimit="10"/>
<path d="M97.52 214.89V179.37" stroke="#A65C23" stroke-width="5" stroke-miterlimit="10"/>
<path d="M86.48 214.89V179.37" stroke="#A65C23" stroke-width="5" stroke-miterlimit="10"/>
<path d="M75.92 214.92V179.4" stroke="#A65C23" stroke-width="5" stroke-miterlimit="10"/>
<path d="M65.88 214.89V179.37" stroke="#A65C23" stroke-width="5" stroke-miterlimit="10"/>
<path d="M160.88 134.88V99.36" stroke="#A65C23" stroke-width="5" stroke-miterlimit="10"/>
<path d="M150.32 134.88V99.36" stroke="#A65C23" stroke-width="5" stroke-miterlimit="10"/>
<path d="M138.8 134.88V99.36" stroke="#A65C23" stroke-width="5" stroke-miterlimit="10"/>
<path d="M128.72 134.88V99.36" stroke="#A65C23" stroke-width="5" stroke-miterlimit="10"/>
<path d="M97.52 134.88V99.36" stroke="#A65C23" stroke-width="5" stroke-miterlimit="10"/>
<path d="M86.48 134.88V99.36" stroke="#A65C23" stroke-width="5" stroke-miterlimit="10"/>
<path d="M75.92 134.88V99.36" stroke="#A65C23" stroke-width="5" stroke-miterlimit="10"/>
<path d="M160.88 214.89V179.37" stroke="#A65C23" stroke-width="5" stroke-miterlimit="10"/>
<path d="M150.32 214.89V179.37" stroke="#A65C23" stroke-width="5" stroke-miterlimit="10"/>
<path d="M138.8 214.89V179.37" stroke="#A65C23" stroke-width="5" stroke-miterlimit="10"/>
<mask id="mask3_4_342" style="mask-type:luminance" maskUnits="userSpaceOnUse" x="-25" y="-269" width="596" height="843">
<path d="M570.28 -268.08H-25V573.81H570.28V-268.08Z" fill="white"/>
</mask>
<g mask="url(#mask3_4_342)">
<path d="M127.64 57.06H98.48C98.48 53.1932 100.016 49.4847 102.75 46.7504C105.485 44.0161 109.193 42.48 113.06 42.48C116.927 42.48 120.635 44.0161 123.37 46.7504C126.104 49.4847 127.64 53.1932 127.64 57.06Z" fill="#A65C23"/>
<path d="M127.64 57.06H98.48C98.48 53.1932 100.016 49.4847 102.75 46.7504C105.485 44.0161 109.193 42.48 113.06 42.48C116.927 42.48 120.635 44.0161 123.37 46.7504C126.104 49.4847 127.64 53.1932 127.64 57.06Z" stroke="#A65C23" stroke-miterlimit="10"/>
<path d="M146.44 55.12C146.44 56.12 149.66 57.01 153.64 57.01C157.62 57.01 160.84 56.16 160.84 55.12C160.84 54.08 157.62 53.23 153.64 53.23C149.66 53.23 146.44 54.07 146.44 55.12Z" fill="#A65C23"/>
<path d="M146.44 55.12C146.44 56.12 149.66 57.01 153.64 57.01C157.62 57.01 160.84 56.16 160.84 55.12C160.84 54.08 157.62 53.23 153.64 53.23C149.66 53.23 146.44 54.07 146.44 55.12Z" stroke="#A65C23" stroke-miterlimit="10"/>
<path d="M137.08 55.06C137.08 55.58 138.21 56.01 139.6 56.01C140.99 56.01 142.12 55.58 142.12 55.06C142.12 54.54 140.99 54.12 139.6 54.12C138.21 54.12 137.08 54.54 137.08 55.06Z" fill="#A65C23"/>
<path d="M137.08 55.06C137.08 55.58 138.21 56.01 139.6 56.01C140.99 56.01 142.12 55.58 142.12 55.06C142.12 54.54 140.99 54.12 139.6 54.12C138.21 54.12 137.08 54.54 137.08 55.06Z" stroke="#A65C23" stroke-miterlimit="10"/>
<path d="M153.64 55.11L139.6 55.06" stroke="#A65C23" stroke-width="2" stroke-miterlimit="10"/>
<path d="M116.74 29.6C117.74 29.6 118.74 26.45 118.91 22.48C119.08 18.51 118.35 15.25 117.3 15.21C116.25 15.17 115.3 18.36 115.13 22.33C114.96 26.3 115.7 29.56 116.74 29.6Z" fill="#A65C23"/>
<path d="M116.74 29.6C117.74 29.6 118.74 26.45 118.91 22.48C119.08 18.51 118.35 15.25 117.3 15.21C116.25 15.17 115.3 18.36 115.13 22.33C114.96 26.3 115.7 29.56 116.74 29.6Z" stroke="#A65C23" stroke-miterlimit="10"/>
<path d="M116.32 38.92C116.84 38.92 117.32 37.83 117.37 36.44C117.42 35.05 117 33.92 116.52 33.92C116.04 33.92 115.52 35.01 115.52 36.4C115.52 37.79 115.84 38.94 116.36 38.96" fill="#A65C23"/>
<path d="M116.32 38.92C116.84 38.92 117.32 37.83 117.37 36.44C117.42 35.05 117 33.92 116.52 33.92C116.04 33.92 115.52 35.01 115.52 36.4C115.52 37.79 115.8 38.92 116.32 38.92Z" stroke="#A65C23" stroke-miterlimit="10"/>
<path d="M117.02 22.4L116.42 36.43" stroke="#A65C23" stroke-width="2" stroke-miterlimit="10"/>
<path d="M108.93 30.16C109.93 30.05 110.48 26.75 110.06 22.8C109.64 18.85 108.47 15.73 107.43 15.8C106.39 15.87 105.89 19.21 106.3 23.16C106.71 27.11 107.9 30.23 108.93 30.16Z" fill="#A65C23"/>
<path d="M108.93 30.16C109.93 30.05 110.48 26.75 110.06 22.8C109.64 18.85 108.47 15.73 107.43 15.8C106.39 15.87 105.89 19.21 106.3 23.16C106.71 27.11 107.9 30.26 108.93 30.16Z" stroke="#A65C23" stroke-miterlimit="10"/>
<path d="M109.86 39.47C110.38 39.41 110.68 38.25 110.53 36.87C110.38 35.49 109.85 34.4 109.33 34.46C108.81 34.52 108.51 35.68 108.65 37.06C108.79 38.44 109.34 39.53 109.86 39.47Z" fill="#A65C23"/>
<path d="M109.86 39.47C110.38 39.41 110.68 38.25 110.53 36.87C110.38 35.49 109.85 34.4 109.33 34.46C108.81 34.52 108.51 35.68 108.65 37.06C108.79 38.44 109.34 39.53 109.86 39.47Z" stroke="#A65C23" stroke-miterlimit="10"/>
<path d="M108.18 22.99L109.6 36.96" stroke="#A65C23" stroke-width="2" stroke-miterlimit="10"/>
<path d="M123.74 31.37C124.74 31.7 126.56 28.92 127.84 25.15C129.12 21.38 129.35 18.06 128.36 17.73C127.37 17.4 125.53 20.18 124.26 23.94C122.99 27.7 122.75 31.03 123.74 31.37Z" fill="#A65C23"/>
<path d="M123.74 31.37C124.74 31.7 126.56 28.92 127.84 25.15C129.12 21.38 129.35 18.06 128.36 17.73C127.37 17.4 125.53 20.18 124.26 23.94C122.99 27.7 122.75 31.03 123.74 31.37Z" stroke="#A65C23" stroke-miterlimit="10"/>
<path d="M120.69 40.22C121.18 40.38 121.95 39.45 122.39 38.13C122.83 36.81 122.8 35.61 122.3 35.44C121.8 35.27 121.05 36.21 120.6 37.53C120.15 38.85 120.19 40.05 120.69 40.22Z" fill="#A65C23"/>
<path d="M120.69 40.22C121.18 40.38 121.95 39.45 122.39 38.13C122.83 36.81 122.8 35.61 122.3 35.44C121.8 35.27 121.05 36.21 120.6 37.53C120.15 38.85 120.19 40.05 120.69 40.22Z" stroke="#A65C23" stroke-miterlimit="10"/>
<path d="M126.05 24.55L121.5 37.83" stroke="#A65C23" stroke-width="2" stroke-miterlimit="10"/>
<path d="M130.9 34.29C131.76 34.87 134.27 32.67 136.49 29.38C138.71 26.09 139.81 22.93 138.95 22.38C138.09 21.83 135.58 24 133.35 27.29C131.12 30.58 130.03 33.74 130.9 34.29Z" fill="#A65C23"/>
<path d="M130.9 34.29C131.76 34.87 134.27 32.67 136.49 29.38C138.71 26.09 139.81 22.93 138.95 22.38C138.09 21.83 135.58 24 133.35 27.29C131.12 30.58 130 33.71 130.9 34.29Z" stroke="#A65C23" stroke-miterlimit="10"/>
<path d="M125.62 42.02C126.05 42.31 127.04 41.61 127.81 40.46C128.58 39.31 128.87 38.13 128.44 37.84C128.01 37.55 127.02 38.25 126.25 39.4C125.48 40.55 125.19 41.73 125.62 42.02Z" fill="#A65C23"/>
<path d="M125.62 42.02C126.05 42.31 127.04 41.61 127.81 40.46C128.58 39.31 128.87 38.13 128.44 37.84C128.01 37.55 127.02 38.25 126.25 39.4C125.48 40.55 125.19 41.73 125.62 42.02Z" stroke="#A65C23" stroke-miterlimit="10"/>
<path d="M134.92 28.32L127.03 39.93" stroke="#A65C23" stroke-width="2" stroke-miterlimit="10"/>
<path d="M136.34 38.84C137.1 39.55 139.93 37.79 142.66 34.91C145.39 32.03 147 29.1 146.24 28.38C145.48 27.66 142.65 29.38 139.92 32.31C137.19 35.24 135.58 38.12 136.34 38.84Z" fill="#A65C23"/>
<path d="M136.34 38.84C137.1 39.55 139.93 37.79 142.66 34.91C145.39 32.03 147 29.1 146.24 28.38C145.48 27.66 142.65 29.38 139.92 32.31C137.19 35.24 135.58 38.12 136.34 38.84Z" stroke="#A65C23" stroke-miterlimit="10"/>
<path d="M129.86 45.6C130.24 45.95 131.33 45.43 132.28 44.42C133.23 43.41 133.71 42.29 133.33 41.94C132.95 41.59 131.87 42.11 130.91 43.12C129.95 44.13 129.49 45.24 129.91 45.6" fill="#A65C23"/>
<path d="M129.86 45.6C130.24 45.95 131.33 45.43 132.28 44.42C133.23 43.41 133.71 42.29 133.33 41.94C132.95 41.59 131.87 42.11 130.91 43.12C129.95 44.13 129.49 45.24 129.86 45.6Z" stroke="#A65C23" stroke-miterlimit="10"/>
<path d="M141.29 33.61L131.6 43.77" stroke="#A65C23" stroke-width="2" stroke-miterlimit="10"/>
<path d="M140.13 43.19C140.76 44.02 143.83 42.72 146.98 40.29C150.13 37.86 152.17 35.23 151.53 34.4C150.89 33.57 147.83 34.87 144.68 37.3C141.53 39.73 139.49 42.37 140.13 43.19Z" fill="#A65C23"/>
<path d="M140.13 43.19C140.76 44.02 143.83 42.72 146.98 40.29C150.13 37.86 152.17 35.23 151.53 34.4C150.89 33.57 147.83 34.87 144.68 37.3C141.53 39.73 139.49 42.37 140.13 43.19Z" stroke="#A65C23" stroke-miterlimit="10"/>
<path d="M132.68 48.86C133 49.28 134.15 48.92 135.25 48.07C136.35 47.22 136.99 46.2 136.67 45.79C136.35 45.38 135.2 45.73 134.1 46.58C133 47.43 132.36 48.45 132.68 48.86Z" fill="#A65C23"/>
<path d="M132.68 48.86C133 49.28 134.15 48.92 135.25 48.07C136.35 47.22 136.99 46.2 136.67 45.79C136.35 45.38 135.2 45.73 134.1 46.58C133 47.43 132.36 48.45 132.68 48.86Z" stroke="#A65C23" stroke-miterlimit="10"/>
<path d="M145.83 38.8L134.68 47.32" stroke="#A65C23" stroke-width="2" stroke-miterlimit="10"/>
<path d="M144.24 49.02C144.57 50.02 147.9 49.78 151.66 48.51C155.42 47.24 158.21 45.4 157.88 44.41C157.55 43.42 154.22 43.65 150.45 44.93C146.68 46.21 143.9 48.03 144.24 49.02Z" fill="#A65C23"/>
<path d="M144.24 49.02C144.57 50.02 147.9 49.78 151.66 48.51C155.42 47.24 158.21 45.4 157.88 44.41C157.55 43.42 154.22 43.65 150.45 44.93C146.68 46.21 143.9 48.03 144.24 49.02Z" stroke="#A65C23" stroke-miterlimit="10"/>
<path d="M135.35 51.97C135.52 52.47 136.73 52.5 138.04 52.06C139.35 51.62 140.29 50.85 140.13 50.36C139.97 49.87 138.76 49.82 137.44 50.27C136.12 50.72 135.19 51.48 135.35 51.97Z" fill="#A65C23"/>
<path d="M135.35 51.97C135.52 52.47 136.73 52.5 138.04 52.06C139.35 51.62 140.29 50.85 140.13 50.36C139.97 49.87 138.76 49.82 137.44 50.27C136.12 50.72 135.19 51.48 135.35 51.97Z" stroke="#A65C23" stroke-miterlimit="10"/>
<path d="M151.06 46.72L137.74 51.16" stroke="#A65C23" stroke-width="2" stroke-miterlimit="10"/>
<path d="M78.52 54.77C78.52 55.77 75.29 56.66 71.32 56.66C67.35 56.66 64.12 55.82 64.12 54.77C64.12 53.72 67.34 52.88 71.32 52.88C75.3 52.88 78.52 53.73 78.52 54.77Z" fill="#A65C23"/>
<path d="M78.52 54.77C78.52 55.77 75.29 56.66 71.32 56.66C67.35 56.66 64.12 55.82 64.12 54.77C64.12 53.72 67.34 52.88 71.32 52.88C75.3 52.88 78.52 53.73 78.52 54.77Z" stroke="#A65C23" stroke-miterlimit="10"/>
<path d="M87.88 54.72C87.88 55.24 86.75 55.66 85.36 55.66C83.97 55.66 82.84 55.24 82.84 54.72C82.84 54.2 83.96 53.77 85.36 53.77C86.76 53.77 87.88 54.2 87.88 54.72Z" fill="#A65C23"/>
<path d="M87.88 54.72C87.88 55.24 86.75 55.66 85.36 55.66C83.97 55.66 82.84 55.24 82.84 54.72C82.84 54.2 83.96 53.77 85.36 53.77C86.76 53.77 87.88 54.2 87.88 54.72Z" stroke="#A65C23" stroke-miterlimit="10"/>
<path d="M71.32 54.77L85.36 54.72" stroke="#A65C23" stroke-width="2" stroke-miterlimit="10"/>
<path d="M101.22 31.03C100.22 31.36 98.39 28.58 97.12 24.81C95.85 21.04 95.61 17.72 96.6 17.39C97.59 17.06 99.42 19.83 100.7 23.6C101.98 27.37 102.2 30.69 101.22 31.03Z" fill="#A65C23"/>
<path d="M101.22 31.03C100.22 31.36 98.39 28.58 97.12 24.81C95.85 21.04 95.61 17.72 96.6 17.39C97.59 17.06 99.42 19.83 100.7 23.6C101.98 27.37 102.2 30.69 101.22 31.03Z" stroke="#A65C23" stroke-miterlimit="10"/>
<path d="M104.27 39.92C103.77 40.08 103.01 39.15 102.56 37.83C102.11 36.51 102.16 35.31 102.65 35.14C103.14 34.97 103.91 35.91 104.35 37.23C104.79 38.55 104.76 39.75 104.27 39.92Z" fill="#A65C23"/>
<path d="M104.27 39.92C103.77 40.08 103.01 39.15 102.56 37.83C102.11 36.51 102.16 35.31 102.65 35.14C103.14 34.97 103.91 35.91 104.35 37.23C104.79 38.55 104.76 39.71 104.27 39.92Z" stroke="#A65C23" stroke-miterlimit="10"/>
<path d="M98.91 24.21L103.46 37.49" stroke="#A65C23" stroke-width="2" stroke-miterlimit="10"/>
<path d="M95 33.99C94.12 34.55 91.68 32.28 89.54 28.93C87.4 25.58 86.39 22.4 87.27 21.84C88.15 21.28 90.6 23.54 92.73 26.9C94.86 30.26 95.88 33.42 95 33.99Z" fill="#A65C23"/>
<path d="M95 33.99C94.12 34.55 91.68 32.28 89.54 28.93C87.4 25.58 86.39 22.4 87.27 21.84C88.15 21.28 90.6 23.54 92.73 26.9C94.86 30.26 95.88 33.42 95 33.99Z" stroke="#A65C23" stroke-miterlimit="10"/>
<path d="M100.08 41.85C99.64 42.13 98.67 41.41 97.93 40.23C97.19 39.05 96.93 37.88 97.37 37.6C97.81 37.32 98.77 38.04 99.52 39.22C100.27 40.4 100.52 41.57 100.08 41.85Z" fill="#A65C23"/>
<path d="M100.08 41.85C99.64 42.13 98.67 41.41 97.93 40.23C97.19 39.05 96.93 37.88 97.37 37.6C97.81 37.32 98.77 38.04 99.52 39.22C100.27 40.4 100.52 41.57 100.08 41.85Z" stroke="#A65C23" stroke-miterlimit="10"/>
<path d="M91.14 27.91L98.72 39.73" stroke="#A65C23" stroke-width="2" stroke-miterlimit="10"/>
<path d="M89.62 38.5C88.86 39.21 86.03 37.45 83.3 34.57C80.57 31.69 78.96 28.76 79.72 28.04C80.48 27.32 83.31 29.04 86.04 31.97C88.77 34.9 90.38 37.78 89.62 38.5Z" fill="#A65C23"/>
<path d="M89.62 38.5C88.86 39.21 86.03 37.45 83.3 34.57C80.57 31.69 78.96 28.76 79.72 28.04C80.48 27.32 83.31 29.04 86.04 31.97C88.77 34.9 90.38 37.78 89.62 38.5Z" stroke="#A65C23" stroke-miterlimit="10"/>
<path d="M96.09 45.26C95.71 45.61 94.63 45.09 93.67 44.08C92.71 43.07 92.25 41.95 92.67 41.6C93.09 41.25 94.13 41.77 95.09 42.78C96.05 43.79 96.51 44.9 96.09 45.26Z" fill="#A65C23"/>
<path d="M96.09 45.26C95.71 45.61 94.63 45.09 93.67 44.08C92.71 43.07 92.25 41.95 92.67 41.6C93.09 41.25 94.13 41.77 95.09 42.78C96.05 43.79 96.47 44.92 96.09 45.26Z" stroke="#A65C23" stroke-miterlimit="10"/>
<path d="M84.67 33.27L94.36 43.42" stroke="#A65C23" stroke-width="2" stroke-miterlimit="10"/>
<path d="M85.92 42.72C85.34 43.59 82.19 42.49 78.92 40.26C75.65 38.03 73.42 35.54 74 34.67C74.58 33.8 77.73 34.91 81 37.13C84.27 39.35 86.5 41.86 85.91 42.72" fill="#A65C23"/>
<path d="M85.92 42.72C85.34 43.59 82.19 42.49 78.92 40.26C75.65 38.03 73.42 35.54 74 34.67C74.58 33.8 77.73 34.91 81 37.13C84.27 39.35 86.51 41.86 85.92 42.72Z" stroke="#A65C23" stroke-miterlimit="10"/>
<path d="M93.71 47.92C93.42 48.35 92.25 48.07 91.1 47.29C89.95 46.51 89.24 45.53 89.54 45.1C89.84 44.67 91 44.95 92.15 45.73C93.3 46.51 94.01 47.48 93.71 47.92Z" fill="#A65C23"/>
<path d="M93.71 47.92C93.42 48.35 92.25 48.07 91.1 47.29C89.95 46.51 89.24 45.53 89.54 45.1C89.84 44.67 91 44.95 92.15 45.73C93.3 46.51 94 47.47 93.71 47.92Z" stroke="#A65C23" stroke-miterlimit="10"/>
<path d="M79.95 38.7L91.62 46.5" stroke="#A65C23" stroke-width="2" stroke-miterlimit="10"/>
<path d="M80.78 48.48C80.52 49.48 77.19 49.54 73.33 48.58C69.47 47.62 66.55 46.02 66.8 45C67.05 43.98 70.39 43.95 74.25 44.91C78.11 45.87 81.03 47.47 80.78 48.48Z" fill="#A65C23"/>
<path d="M80.78 48.48C80.52 49.48 77.19 49.54 73.33 48.58C69.47 47.62 66.55 46.02 66.8 45C67.05 43.98 70.39 43.95 74.25 44.91C78.11 45.87 81 47.47 80.78 48.48Z" stroke="#A65C23" stroke-miterlimit="10"/>
<path d="M89.87 50.69C89.75 51.2 88.55 51.34 87.2 51C85.85 50.66 84.86 50 84.98 49.47C85.1 48.94 86.31 48.83 87.66 49.17C89.01 49.51 90 50.17 89.87 50.69Z" fill="#A65C23"/>
<path d="M89.87 50.69C89.75 51.2 88.55 51.34 87.2 51C85.85 50.66 84.86 50 84.98 49.47C85.1 48.94 86.31 48.83 87.66 49.17C89.01 49.51 90 50.18 89.87 50.69Z" stroke="#A65C23" stroke-miterlimit="10"/>
<path d="M73.79 46.74L87.43 50.08" stroke="#A65C23" stroke-width="2" stroke-miterlimit="10"/>
</g>
<path d="M186.32 155.88V236.16" stroke="white" stroke-width="2" stroke-miterlimit="10"/>
<path d="M192.08 169.92L191.13 199.08L189.92 236.16" fill="#A65C23"/>
<path d="M192.08 169.92L191.13 199.08L189.92 236.16" stroke="#A65C23" stroke-width="2" stroke-miterlimit="10"/>
<mask id="mask4_4_342" style="mask-type:luminance" maskUnits="userSpaceOnUse" x="-25" y="-269" width="596" height="843">
<path d="M570.28 -268.08H-25V573.81H570.28V-268.08Z" fill="white"/>
</mask>
<g mask="url(#mask4_4_342)">
<path d="M121.16 231.12H133C133 231.12 136.24 236.52 133 240.12C129.76 243.72 196.44 243.62 207.88 217.89C211.14 210.56 210.48 205.56 203.28 186.12C203.28 186.12 189.52 164.52 212.92 155.88L214.36 174.36C214.36 174.36 203.56 174.96 206.8 185.36C210.04 195.76 217.8 218.07 214.36 227.12C211.28 235.12 206.44 248.72 191.36 252.68H126.77C126.77 252.68 121.16 249.08 121.16 244.76C121.16 240.44 125.48 235.4 121.16 231.08" fill="#A65C23"/>
<path d="M121.16 231.12H133C133 231.12 136.24 236.52 133 240.12C129.76 243.72 196.44 243.62 207.88 217.89C211.14 210.56 210.48 205.56 203.28 186.12C203.28 186.12 189.52 164.52 212.92 155.88L214.36 174.36C214.36 174.36 203.56 174.96 206.8 185.36C210.04 195.76 217.8 218.07 214.36 227.12C211.28 235.12 206.44 248.72 191.36 252.68H126.77C126.77 252.68 121.16 249.08 121.16 244.76C121.16 240.44 125.48 235.44 121.16 231.12Z" stroke="white" stroke-miterlimit="10"/>
<path d="M196.4 183.6L216.92 181.4" stroke="#A65C23" stroke-width="1.5" stroke-miterlimit="10"/>
<path d="M216.92 188.64H206.66" stroke="#A65C23" stroke-width="1.5" stroke-miterlimit="10"/>
<path d="M207.18 194.03H216.92" stroke="#A65C23" stroke-width="1.5" stroke-miterlimit="10"/>
</g>
</g>
<defs>
<clipPath id="clip0_4_342">
<rect width="179" height="253.22" fill="white" transform="translate(38)"/>
</clipPath>
</defs>
</svg>
