<svg width="48" height="48" viewBox="0 0 48 48" fill="none" xmlns="http://www.w3.org/2000/svg">
<path fill-rule="evenodd" clip-rule="evenodd" d="M40.5811 7.35018C36.1957 2.95966 30.3635 0.540661 24.1502 0.538086C11.3471 0.538086 0.92728 10.9576 0.922131 23.7642C0.920414 27.858 1.98986 31.8543 4.02262 35.3768L0.727295 47.4131L13.0409 44.183C16.4337 46.0338 20.2535 47.0091 24.1408 47.0103H24.1505C36.9521 47.0103 47.3731 36.5898 47.378 23.7828C47.3806 17.576 44.9667 11.7404 40.5811 7.35018ZM24.1502 43.0875H24.1422C20.6781 43.0861 17.2806 42.1551 14.316 40.3964L13.6113 39.9779L6.30429 41.8947L8.25465 34.7705L7.79545 34.0401C5.86283 30.9662 4.8423 27.4134 4.84402 23.7656C4.84803 13.1212 13.5089 4.46112 24.1579 4.46112C29.3146 4.46284 34.1621 6.47356 37.807 10.1228C41.452 13.772 43.4581 18.6226 43.4564 23.7813C43.4518 34.4266 34.7915 43.0875 24.1502 43.0875ZM34.74 28.6282C34.1598 28.3375 31.3062 26.9339 30.774 26.7399C30.2425 26.5462 29.8551 26.4498 29.4686 27.0306C29.0815 27.6114 27.9694 28.9189 27.6306 29.306C27.2919 29.6933 26.9537 29.742 26.3732 29.4513C25.7927 29.1609 23.9228 28.5478 21.7057 26.5705C19.9805 25.0316 18.8158 23.131 18.4771 22.5502C18.1389 21.9689 18.4742 21.685 18.7317 21.3658C19.36 20.5856 19.9891 19.7676 20.1825 19.3805C20.3762 18.9931 20.2792 18.6541 20.1339 18.3637C19.9891 18.0733 18.8284 15.2166 18.3449 14.0541C17.8734 12.9229 17.3953 13.0757 17.0388 13.0579C16.7007 13.041 16.3136 13.0376 15.9265 13.0376C15.5397 13.0376 14.9108 13.1827 14.3787 13.764C13.8468 14.3451 12.3476 15.749 12.3476 18.6057C12.3476 21.4625 14.4273 24.2222 14.7174 24.6096C15.0075 24.997 18.8101 30.8592 24.632 33.3729C26.0167 33.9714 27.0976 34.3282 27.9408 34.5957C29.3312 35.0374 30.5961 34.9751 31.5963 34.8257C32.7115 34.6589 35.0298 33.4215 35.5139 32.066C35.9974 30.7101 35.9974 29.5483 35.8521 29.306C35.7073 29.0639 35.3202 28.9189 34.74 28.6282Z" fill="black"/>
</svg>
