<svg width="53" height="56" viewBox="0 0 53 56" fill="none" xmlns="http://www.w3.org/2000/svg">
<g clip-path="url(#clip0)">
<path d="M52.7673 16.2172C52.6436 13.2863 52.1897 11.2714 51.5396 9.52541C50.8689 7.6721 49.837 6.01284 48.4852 4.63348C47.1643 3.23266 45.565 2.14416 43.8108 1.4547C42.1293 0.775755 40.2099 0.301799 37.4034 0.172577C34.5759 0.0324108 33.6782 0 26.5069 0C19.3356 0 18.438 0.0324108 15.621 0.161633C12.8145 0.290855 10.885 0.765232 9.21352 1.44375C7.43843 2.14416 5.84955 3.22172 4.52872 4.63348C3.18732 6.01284 2.1454 7.68305 1.48478 9.51489C0.834642 11.2714 0.380793 13.2754 0.257053 16.2062C0.122833 19.159 0.0917969 20.0964 0.0917969 27.5854C0.0917969 35.0744 0.122833 36.0118 0.246573 38.9536C0.370314 41.8844 0.824566 43.8994 1.47471 45.6454C2.1454 47.4987 3.18732 49.1579 4.52872 50.5373C5.84955 51.9381 7.44891 53.0266 9.20304 53.7161C10.885 54.395 12.804 54.869 15.6109 54.9982C18.4275 55.1278 19.3256 55.1598 26.4969 55.1598C33.6682 55.1598 34.5658 55.1278 37.3828 54.9982C40.1893 54.869 42.1188 54.395 43.7903 53.7161C47.3401 52.2828 50.1466 49.352 51.519 45.6454C52.1688 43.8889 52.623 41.8844 52.7468 38.9536C52.8705 36.0118 52.9015 35.0744 52.9015 27.5854C52.9015 20.0964 52.8911 19.159 52.7673 16.2172ZM48.0108 38.7381C47.8971 41.432 47.4638 42.8867 47.1027 43.8565C46.2151 46.2595 44.3888 48.1667 42.0878 49.0935C41.1591 49.4707 39.756 49.9232 37.1865 50.0414C34.4005 50.1711 33.565 50.2031 26.5174 50.2031C19.4699 50.2031 18.6238 50.1711 15.8479 50.0414C13.2683 49.9232 11.8753 49.4707 10.9467 49.0935C9.80159 48.6516 8.75927 47.9512 7.91324 47.0352C7.03617 46.1408 6.36547 45.0632 5.94226 43.8674C5.58111 42.8976 5.14782 41.432 5.03456 38.749C4.91042 35.8396 4.87978 34.9666 4.87978 27.6069C4.87978 20.2471 4.91042 19.3636 5.03456 16.4651C5.14782 13.7712 5.58111 12.3165 5.94226 11.3467C6.36547 10.1505 7.03617 9.0624 7.92372 8.17847C8.77982 7.26255 9.81166 6.56214 10.9572 6.12059C11.8858 5.74345 13.2893 5.29096 15.8584 5.17226C18.6444 5.04304 19.4803 5.01063 26.5275 5.01063C33.5855 5.01063 34.4211 5.04304 37.197 5.17226C39.7766 5.29096 41.1696 5.74345 42.0982 6.12059C43.2433 6.56214 44.2857 7.26255 45.1317 8.17847C46.0087 9.07292 46.6794 10.1505 47.1027 11.3467C47.4638 12.3165 47.8971 13.7818 48.0108 16.4651C48.1345 19.3745 48.1655 20.2471 48.1655 27.6069C48.1655 34.9666 48.1345 35.8287 48.0108 38.7381Z" fill="black"/>
<path d="M26.5062 13.4155C19.0153 13.4155 12.9375 19.7622 12.9375 27.5854C12.9375 35.4086 19.0153 41.7552 26.5062 41.7552C33.9976 41.7552 40.0749 35.4086 40.0749 27.5854C40.0749 19.7622 33.9976 13.4155 26.5062 13.4155ZM26.5062 36.777C21.6465 36.777 17.7045 32.6608 17.7045 27.5854C17.7045 22.5099 21.6465 18.3937 26.5062 18.3937C31.3664 18.3937 35.3079 22.5099 35.3079 27.5854C35.3079 32.6608 31.3664 36.777 26.5062 36.777V36.777Z" fill="black"/>
<path d="M43.7811 12.8552C43.7811 14.682 42.3627 16.1633 40.613 16.1633C38.8637 16.1633 37.4453 14.682 37.4453 12.8552C37.4453 11.028 38.8637 9.54724 40.613 9.54724C42.3627 9.54724 43.7811 11.028 43.7811 12.8552V12.8552Z" fill="black"/>
</g>
<defs>
<clipPath id="clip0">
<rect width="52.82" height="55.16" fill="white"/>
</clipPath>
</defs>
</svg>
