<svg id="Livello_1" data-name="Livello 1" xmlns="http://www.w3.org/2000/svg" xmlns:xlink="http://www.w3.org/1999/xlink" viewBox="0 0 179 253.22"><defs><style>.cls-1,.cls-10,.cls-5,.cls-6,.cls-7,.cls-8,.cls-9{fill:none;}.cls-2{clip-path:url(#clip-path);}.cls-3{fill:#A65C23;}.cls-4{fill:#fff;}.cls-5,.cls-9{stroke:#fff;}.cls-10,.cls-5,.cls-6,.cls-7,.cls-8,.cls-9{stroke-miterlimit:10;}.cls-5,.cls-8{stroke-width:2px;}.cls-10,.cls-6,.cls-7,.cls-8{stroke:#A65C23;}.cls-7{stroke-width:5px;}.cls-10{stroke-width:1.5px;}</style><clipPath id="clip-path" transform="translate(-63 -268.08)"><rect class="cls-1" width="595.28" height="841.89"/></clipPath></defs><title>LaPortaDAcquaImg</title><g class="cls-2"><path class="cls-3" d="M213.24,333.36V511.44H63V333.36h5.34c0-.84-.06-1.69-.06-2.54,0-34.65,30.73-62.74,68.64-62.74s68.64,28.09,68.64,62.74c0,.85,0,1.7-.06,2.54Z" transform="translate(-63 -268.08)"/></g><g class="cls-2"><path class="cls-4" d="M196,332.4H79.2c0-30.82,26.14-55.8,58.38-55.8s58.38,25,58.38,55.8" transform="translate(-63 -268.08)"/><line class="cls-5" x1="7.2" y1="74.4" x2="142.08" y2="74.4"/><rect class="cls-4" x="7.2" y="95.04" width="134.88" height="45.6"/><rect class="cls-5" x="7.2" y="95.04" width="134.88" height="45.6"/><rect class="cls-4" x="7.2" y="174.36" width="134.88" height="45.6"/><rect class="cls-5" x="7.2" y="174.36" width="134.88" height="45.6"/></g><g class="cls-2"><path class="cls-3" d="M92.76,367.13a1.95,1.95,0,1,0-2,1.95,1.94,1.94,0,0,0,2-1.95" transform="translate(-63 -268.08)"/><path class="cls-6" d="M92.76,367.13a1.95,1.95,0,1,0-2,1.95A1.94,1.94,0,0,0,92.76,367.13Z" transform="translate(-63 -268.08)"/><path class="cls-3" d="M187.83,367.13a2,2,0,1,0-2,1.95,2,2,0,0,0,2-1.95" transform="translate(-63 -268.08)"/><path class="cls-6" d="M187.83,367.13a2,2,0,1,0-2,1.95A2,2,0,0,0,187.83,367.13Z" transform="translate(-63 -268.08)"/><path class="cls-3" d="M177.27,367.49a2,2,0,1,0-2,1.95,1.94,1.94,0,0,0,2-1.95" transform="translate(-63 -268.08)"/><path class="cls-6" d="M177.27,367.49a2,2,0,1,0-2,1.95A1.94,1.94,0,0,0,177.27,367.49Z" transform="translate(-63 -268.08)"/><path class="cls-3" d="M165.75,367.13a1.95,1.95,0,1,0-1.95,1.95,1.94,1.94,0,0,0,1.95-1.95" transform="translate(-63 -268.08)"/><path class="cls-6" d="M165.75,367.13a1.95,1.95,0,1,0-1.95,1.95A1.94,1.94,0,0,0,165.75,367.13Z" transform="translate(-63 -268.08)"/><path class="cls-3" d="M155.67,367.44a1.95,1.95,0,1,0-1.95,1.95,2,2,0,0,0,1.95-1.95" transform="translate(-63 -268.08)"/><path class="cls-6" d="M155.67,367.44a1.95,1.95,0,1,0-1.95,1.95A2,2,0,0,0,155.67,367.44Z" transform="translate(-63 -268.08)"/><path class="cls-3" d="M124.47,367.13a2,2,0,1,0-2,1.95,2,2,0,0,0,2-1.95" transform="translate(-63 -268.08)"/><path class="cls-6" d="M124.47,367.13a2,2,0,1,0-2,1.95A2,2,0,0,0,124.47,367.13Z" transform="translate(-63 -268.08)"/><path class="cls-3" d="M113.43,367.44a2,2,0,1,0-2,1.95,2,2,0,0,0,2-1.95" transform="translate(-63 -268.08)"/><path class="cls-6" d="M113.43,367.44a2,2,0,1,0-2,1.95A2,2,0,0,0,113.43,367.44Z" transform="translate(-63 -268.08)"/><path class="cls-3" d="M102.87,367.19a2,2,0,1,0-2,1.94,2,2,0,0,0,2-1.94" transform="translate(-63 -268.08)"/><path class="cls-6" d="M102.87,367.19a2,2,0,1,0-2,1.94A2,2,0,0,0,102.87,367.19Z" transform="translate(-63 -268.08)"/><path class="cls-3" d="M92.76,447.17a1.95,1.95,0,1,0-2,1.95,1.94,1.94,0,0,0,2-1.95" transform="translate(-63 -268.08)"/><path class="cls-6" d="M92.76,447.17a1.95,1.95,0,1,0-2,1.95A1.94,1.94,0,0,0,92.76,447.17Z" transform="translate(-63 -268.08)"/><path class="cls-3" d="M187.83,447.17a2,2,0,1,0-2,1.95,2,2,0,0,0,2-1.95" transform="translate(-63 -268.08)"/><path class="cls-6" d="M187.83,447.17a2,2,0,1,0-2,1.95A2,2,0,0,0,187.83,447.17Z" transform="translate(-63 -268.08)"/><path class="cls-3" d="M177.27,447.53a2,2,0,1,0-2,2,1.94,1.94,0,0,0,2-2" transform="translate(-63 -268.08)"/><path class="cls-6" d="M177.27,447.53a2,2,0,1,0-2,2A1.94,1.94,0,0,0,177.27,447.53Z" transform="translate(-63 -268.08)"/><path class="cls-3" d="M165.75,447.17a1.95,1.95,0,1,0-1.95,1.95,1.94,1.94,0,0,0,1.95-1.95" transform="translate(-63 -268.08)"/><path class="cls-6" d="M165.75,447.17a1.95,1.95,0,1,0-1.95,1.95A1.94,1.94,0,0,0,165.75,447.17Z" transform="translate(-63 -268.08)"/><path class="cls-3" d="M155.67,447.48a1.95,1.95,0,1,0-1.95,1.95,2,2,0,0,0,1.95-1.95" transform="translate(-63 -268.08)"/><path class="cls-6" d="M155.67,447.48a1.95,1.95,0,1,0-1.95,1.95A2,2,0,0,0,155.67,447.48Z" transform="translate(-63 -268.08)"/><path class="cls-3" d="M124.47,447.17a2,2,0,1,0-2,1.95,2,2,0,0,0,2-1.95" transform="translate(-63 -268.08)"/><path class="cls-6" d="M124.47,447.17a2,2,0,1,0-2,1.95A2,2,0,0,0,124.47,447.17Z" transform="translate(-63 -268.08)"/><path class="cls-3" d="M113.43,447.48a2,2,0,1,0-2,1.95,2,2,0,0,0,2-1.95" transform="translate(-63 -268.08)"/><path class="cls-6" d="M113.43,447.48a2,2,0,1,0-2,1.95A2,2,0,0,0,113.43,447.48Z" transform="translate(-63 -268.08)"/><path class="cls-3" d="M102.87,447.23a2,2,0,1,0-2,1.94,2,2,0,0,0,2-1.94" transform="translate(-63 -268.08)"/><path class="cls-6" d="M102.87,447.23a2,2,0,1,0-2,1.94A2,2,0,0,0,102.87,447.23Z" transform="translate(-63 -268.08)"/></g><path class="cls-3" d="M90.88,403v0Z" transform="translate(-63 -268.08)"/><line class="cls-7" x1="27.88" y1="134.88" x2="27.88" y2="99.36"/><path class="cls-3" d="M153.72,483v0Z" transform="translate(-63 -268.08)"/><line class="cls-7" x1="90.72" y1="214.92" x2="90.72" y2="179.4"/><path class="cls-3" d="M122.52,483v0Z" transform="translate(-63 -268.08)"/><line class="cls-7" x1="59.52" y1="214.89" x2="59.52" y2="179.37"/><path class="cls-3" d="M111.48,483v0Z" transform="translate(-63 -268.08)"/><line class="cls-7" x1="48.48" y1="214.89" x2="48.48" y2="179.37"/><path class="cls-3" d="M100.92,483v0Z" transform="translate(-63 -268.08)"/><line class="cls-7" x1="37.92" y1="214.92" x2="37.92" y2="179.4"/><path class="cls-3" d="M90.88,483v0Z" transform="translate(-63 -268.08)"/><line class="cls-7" x1="27.88" y1="214.89" x2="27.88" y2="179.37"/><path class="cls-3" d="M185.88,403v0Z" transform="translate(-63 -268.08)"/><line class="cls-7" x1="122.88" y1="134.88" x2="122.88" y2="99.36"/><path class="cls-3" d="M175.32,403v0Z" transform="translate(-63 -268.08)"/><line class="cls-7" x1="112.32" y1="134.88" x2="112.32" y2="99.36"/><path class="cls-3" d="M163.8,403v0Z" transform="translate(-63 -268.08)"/><line class="cls-7" x1="100.8" y1="134.88" x2="100.8" y2="99.36"/><path class="cls-3" d="M153.72,403v0Z" transform="translate(-63 -268.08)"/><line class="cls-7" x1="90.72" y1="134.88" x2="90.72" y2="99.36"/><path class="cls-3" d="M122.52,403v0Z" transform="translate(-63 -268.08)"/><line class="cls-7" x1="59.52" y1="134.88" x2="59.52" y2="99.36"/><path class="cls-3" d="M111.48,403v0Z" transform="translate(-63 -268.08)"/><line class="cls-7" x1="48.48" y1="134.88" x2="48.48" y2="99.36"/><path class="cls-3" d="M100.92,403v0Z" transform="translate(-63 -268.08)"/><line class="cls-7" x1="37.92" y1="134.88" x2="37.92" y2="99.36"/><path class="cls-3" d="M185.88,483v0Z" transform="translate(-63 -268.08)"/><line class="cls-7" x1="122.88" y1="214.89" x2="122.88" y2="179.37"/><path class="cls-3" d="M175.32,483v0Z" transform="translate(-63 -268.08)"/><line class="cls-7" x1="112.32" y1="214.89" x2="112.32" y2="179.37"/><path class="cls-3" d="M163.8,483v0Z" transform="translate(-63 -268.08)"/><line class="cls-7" x1="100.8" y1="214.89" x2="100.8" y2="179.37"/><g class="cls-2"><path class="cls-3" d="M152.64,325.14H123.48a14.58,14.58,0,0,1,29.16,0" transform="translate(-63 -268.08)"/><path class="cls-6" d="M152.64,325.14H123.48a14.58,14.58,0,0,1,29.16,0Z" transform="translate(-63 -268.08)"/><path class="cls-3" d="M171.44,323.2c0,1,3.22,1.89,7.2,1.89s7.2-.85,7.2-1.89-3.22-1.89-7.2-1.89-7.2.84-7.2,1.89" transform="translate(-63 -268.08)"/><path class="cls-6" d="M171.44,323.2c0,1,3.22,1.89,7.2,1.89s7.2-.85,7.2-1.89-3.22-1.89-7.2-1.89S171.44,322.15,171.44,323.2Z" transform="translate(-63 -268.08)"/><path class="cls-3" d="M162.08,323.14c0,.52,1.13.95,2.52.95s2.52-.43,2.52-.95-1.13-.94-2.52-.94-2.52.42-2.52.94" transform="translate(-63 -268.08)"/><path class="cls-6" d="M162.08,323.14c0,.52,1.13.95,2.52.95s2.52-.43,2.52-.95-1.13-.94-2.52-.94S162.08,322.62,162.08,323.14Z" transform="translate(-63 -268.08)"/><line class="cls-3" x1="115.64" y1="55.11" x2="101.6" y2="55.06"/><line class="cls-8" x1="115.64" y1="55.11" x2="101.6" y2="55.06"/><path class="cls-3" d="M141.74,297.68c1,0,2-3.15,2.17-7.12s-.56-7.23-1.61-7.27-2,3.15-2.17,7.12.57,7.23,1.61,7.27" transform="translate(-63 -268.08)"/><path class="cls-6" d="M141.74,297.68c1,0,2-3.15,2.17-7.12s-.56-7.23-1.61-7.27-2,3.15-2.17,7.12S140.7,297.64,141.74,297.68Z" transform="translate(-63 -268.08)"/><path class="cls-3" d="M141.32,307c.52,0,1-1.09,1.05-2.48S142,302,141.52,302s-1,1.09-1,2.48.32,2.54.84,2.56" transform="translate(-63 -268.08)"/><path class="cls-6" d="M141.32,307c.52,0,1-1.09,1.05-2.48S142,302,141.52,302s-1,1.09-1,2.48S140.8,307,141.32,307Z" transform="translate(-63 -268.08)"/><line class="cls-3" x1="79.02" y1="22.4" x2="78.42" y2="36.43"/><line class="cls-8" x1="79.02" y1="22.4" x2="78.42" y2="36.43"/><path class="cls-3" d="M133.93,298.24c1-.11,1.55-3.41,1.13-7.36s-1.59-7.07-2.63-7-1.54,3.41-1.13,7.36,1.6,7.07,2.63,7" transform="translate(-63 -268.08)"/><path class="cls-6" d="M133.93,298.24c1-.11,1.55-3.41,1.13-7.36s-1.59-7.07-2.63-7-1.54,3.41-1.13,7.36S132.9,298.34,133.93,298.24Z" transform="translate(-63 -268.08)"/><path class="cls-3" d="M134.86,307.55c.52-.06.82-1.22.67-2.6s-.68-2.47-1.2-2.41-.82,1.22-.68,2.6.69,2.47,1.21,2.41" transform="translate(-63 -268.08)"/><path class="cls-6" d="M134.86,307.55c.52-.06.82-1.22.67-2.6s-.68-2.47-1.2-2.41-.82,1.22-.68,2.6S134.34,307.61,134.86,307.55Z" transform="translate(-63 -268.08)"/><line class="cls-3" x1="70.18" y1="22.99" x2="71.6" y2="36.96"/><line class="cls-8" x1="70.18" y1="22.99" x2="71.6" y2="36.96"/><path class="cls-3" d="M148.74,299.45c1,.33,2.82-2.45,4.1-6.22s1.51-7.09.52-7.42-2.83,2.45-4.1,6.21-1.51,7.09-.52,7.43" transform="translate(-63 -268.08)"/><path class="cls-6" d="M148.74,299.45c1,.33,2.82-2.45,4.1-6.22s1.51-7.09.52-7.42-2.83,2.45-4.1,6.21S147.75,299.11,148.74,299.45Z" transform="translate(-63 -268.08)"/><path class="cls-3" d="M145.69,308.3c.49.16,1.26-.77,1.7-2.09s.41-2.52-.09-2.69-1.25.77-1.7,2.09-.41,2.52.09,2.69" transform="translate(-63 -268.08)"/><path class="cls-6" d="M145.69,308.3c.49.16,1.26-.77,1.7-2.09s.41-2.52-.09-2.69-1.25.77-1.7,2.09S145.19,308.13,145.69,308.3Z" transform="translate(-63 -268.08)"/><line class="cls-3" x1="88.05" y1="24.55" x2="83.5" y2="37.83"/><line class="cls-8" x1="88.05" y1="24.55" x2="83.5" y2="37.83"/><path class="cls-3" d="M155.9,302.37c.86.58,3.37-1.62,5.59-4.91s3.32-6.45,2.46-7-3.37,1.62-5.6,4.91-3.32,6.45-2.45,7" transform="translate(-63 -268.08)"/><path class="cls-6" d="M155.9,302.37c.86.58,3.37-1.62,5.59-4.91s3.32-6.45,2.46-7-3.37,1.62-5.6,4.91S155,301.79,155.9,302.37Z" transform="translate(-63 -268.08)"/><path class="cls-3" d="M150.62,310.1c.43.29,1.42-.41,2.19-1.56s1.06-2.33.63-2.62-1.42.41-2.19,1.56-1.06,2.33-.63,2.62" transform="translate(-63 -268.08)"/><path class="cls-6" d="M150.62,310.1c.43.29,1.42-.41,2.19-1.56s1.06-2.33.63-2.62-1.42.41-2.19,1.56S150.19,309.81,150.62,310.1Z" transform="translate(-63 -268.08)"/><line class="cls-3" x1="96.92" y1="28.32" x2="89.03" y2="39.93"/><line class="cls-8" x1="96.92" y1="28.32" x2="89.03" y2="39.93"/><path class="cls-3" d="M161.34,306.92c.76.71,3.59-1.05,6.32-3.93s4.34-5.81,3.58-6.53-3.59,1-6.32,3.93-4.34,5.81-3.58,6.53" transform="translate(-63 -268.08)"/><path class="cls-6" d="M161.34,306.92c.76.71,3.59-1.05,6.32-3.93s4.34-5.81,3.58-6.53-3.59,1-6.32,3.93S160.58,306.2,161.34,306.92Z" transform="translate(-63 -268.08)"/><path class="cls-3" d="M154.86,313.68c.38.35,1.47-.17,2.42-1.18s1.43-2.13,1.05-2.48-1.46.17-2.42,1.18-1.42,2.12-1,2.48" transform="translate(-63 -268.08)"/><path class="cls-6" d="M154.86,313.68c.38.35,1.47-.17,2.42-1.18s1.43-2.13,1.05-2.48-1.46.17-2.42,1.18S154.49,313.32,154.86,313.68Z" transform="translate(-63 -268.08)"/><line class="cls-3" x1="103.29" y1="33.61" x2="93.6" y2="43.77"/><line class="cls-8" x1="103.29" y1="33.61" x2="93.6" y2="43.77"/><path class="cls-3" d="M165.13,311.27c.63.83,3.7-.47,6.85-2.9s5.19-5.06,4.55-5.89-3.7.47-6.85,2.9-5.19,5.07-4.55,5.89" transform="translate(-63 -268.08)"/><path class="cls-6" d="M165.13,311.27c.63.83,3.7-.47,6.85-2.9s5.19-5.06,4.55-5.89-3.7.47-6.85,2.9S164.49,310.45,165.13,311.27Z" transform="translate(-63 -268.08)"/><path class="cls-3" d="M157.68,316.94c.32.42,1.47.06,2.57-.79s1.74-1.87,1.42-2.28-1.47-.06-2.57.79-1.74,1.87-1.42,2.28" transform="translate(-63 -268.08)"/><path class="cls-6" d="M157.68,316.94c.32.42,1.47.06,2.57-.79s1.74-1.87,1.42-2.28-1.47-.06-2.57.79S157.36,316.53,157.68,316.94Z" transform="translate(-63 -268.08)"/><line class="cls-3" x1="107.83" y1="38.8" x2="96.68" y2="47.32"/><line class="cls-8" x1="107.83" y1="38.8" x2="96.68" y2="47.32"/><path class="cls-3" d="M169.24,317.1c.33,1,3.66.76,7.42-.51s6.55-3.11,6.22-4.1-3.66-.76-7.43.52-6.55,3.1-6.21,4.09" transform="translate(-63 -268.08)"/><path class="cls-6" d="M169.24,317.1c.33,1,3.66.76,7.42-.51s6.55-3.11,6.22-4.1-3.66-.76-7.43.52S168.9,316.11,169.24,317.1Z" transform="translate(-63 -268.08)"/><path class="cls-3" d="M160.35,320.05c.17.5,1.38.53,2.69.09s2.25-1.21,2.09-1.7-1.37-.54-2.69-.09-2.25,1.21-2.09,1.7" transform="translate(-63 -268.08)"/><path class="cls-6" d="M160.35,320.05c.17.5,1.38.53,2.69.09s2.25-1.21,2.09-1.7-1.37-.54-2.69-.09S160.19,319.56,160.35,320.05Z" transform="translate(-63 -268.08)"/><line class="cls-3" x1="113.06" y1="46.72" x2="99.74" y2="51.16"/><line class="cls-8" x1="113.06" y1="46.72" x2="99.74" y2="51.16"/><path class="cls-3" d="M103.52,322.85c0,1-3.23,1.89-7.2,1.89s-7.2-.84-7.2-1.89,3.22-1.89,7.2-1.89,7.2.85,7.2,1.89" transform="translate(-63 -268.08)"/><path class="cls-6" d="M103.52,322.85c0,1-3.23,1.89-7.2,1.89s-7.2-.84-7.2-1.89,3.22-1.89,7.2-1.89S103.52,321.81,103.52,322.85Z" transform="translate(-63 -268.08)"/><path class="cls-3" d="M112.88,322.8c0,.52-1.13.94-2.52.94s-2.52-.42-2.52-.94,1.12-.95,2.52-.95,2.52.43,2.52.95" transform="translate(-63 -268.08)"/><path class="cls-6" d="M112.88,322.8c0,.52-1.13.94-2.52.94s-2.52-.42-2.52-.94,1.12-.95,2.52-.95S112.88,322.28,112.88,322.8Z" transform="translate(-63 -268.08)"/><line class="cls-3" x1="33.32" y1="54.77" x2="47.36" y2="54.72"/><line class="cls-8" x1="33.32" y1="54.77" x2="47.36" y2="54.72"/><path class="cls-3" d="M126.22,299.11c-1,.33-2.83-2.45-4.1-6.22s-1.51-7.09-.52-7.42,2.82,2.44,4.1,6.21,1.5,7.09.52,7.43" transform="translate(-63 -268.08)"/><path class="cls-6" d="M126.22,299.11c-1,.33-2.83-2.45-4.1-6.22s-1.51-7.09-.52-7.42,2.82,2.44,4.1,6.21S127.2,298.77,126.22,299.11Z" transform="translate(-63 -268.08)"/><path class="cls-3" d="M129.27,308c-.5.16-1.26-.77-1.71-2.09s-.4-2.52.09-2.69,1.26.77,1.7,2.09.41,2.52-.08,2.69" transform="translate(-63 -268.08)"/><path class="cls-6" d="M129.27,308c-.5.16-1.26-.77-1.71-2.09s-.4-2.52.09-2.69,1.26.77,1.7,2.09S129.76,307.79,129.27,308Z" transform="translate(-63 -268.08)"/><line class="cls-3" x1="60.91" y1="24.21" x2="65.46" y2="37.49"/><line class="cls-8" x1="60.91" y1="24.21" x2="65.46" y2="37.49"/><path class="cls-3" d="M120,302.07c-.88.56-3.32-1.71-5.46-5.06s-3.15-6.53-2.27-7.09,3.33,1.7,5.46,5.06,3.15,6.52,2.27,7.09" transform="translate(-63 -268.08)"/><path class="cls-6" d="M120,302.07c-.88.56-3.32-1.71-5.46-5.06s-3.15-6.53-2.27-7.09,3.33,1.7,5.46,5.06S120.88,301.5,120,302.07Z" transform="translate(-63 -268.08)"/><path class="cls-3" d="M125.08,309.93c-.44.28-1.41-.44-2.15-1.62s-1-2.35-.56-2.63,1.4.44,2.15,1.62,1,2.35.56,2.63" transform="translate(-63 -268.08)"/><path class="cls-6" d="M125.08,309.93c-.44.28-1.41-.44-2.15-1.62s-1-2.35-.56-2.63,1.4.44,2.15,1.62S125.52,309.65,125.08,309.93Z" transform="translate(-63 -268.08)"/><line class="cls-3" x1="53.14" y1="27.91" x2="60.72" y2="39.73"/><line class="cls-8" x1="53.14" y1="27.91" x2="60.72" y2="39.73"/><path class="cls-3" d="M114.62,306.58c-.76.71-3.59-1.05-6.32-3.93s-4.34-5.81-3.58-6.53,3.59,1,6.32,3.93,4.34,5.81,3.58,6.53" transform="translate(-63 -268.08)"/><path class="cls-6" d="M114.62,306.58c-.76.71-3.59-1.05-6.32-3.93s-4.34-5.81-3.58-6.53,3.59,1,6.32,3.93S115.38,305.86,114.62,306.58Z" transform="translate(-63 -268.08)"/><path class="cls-3" d="M121.09,313.34c-.38.35-1.46-.17-2.42-1.18s-1.42-2.13-1-2.48,1.46.17,2.42,1.18,1.42,2.12,1,2.48" transform="translate(-63 -268.08)"/><path class="cls-6" d="M121.09,313.34c-.38.35-1.46-.17-2.42-1.18s-1.42-2.13-1-2.48,1.46.17,2.42,1.18S121.47,313,121.09,313.34Z" transform="translate(-63 -268.08)"/><line class="cls-3" x1="46.67" y1="33.27" x2="56.36" y2="43.42"/><line class="cls-8" x1="46.67" y1="33.27" x2="56.36" y2="43.42"/><path class="cls-3" d="M110.92,310.8c-.58.87-3.73-.23-7-2.46s-5.5-4.72-4.92-5.59,3.73.24,7,2.46,5.5,4.73,4.91,5.59" transform="translate(-63 -268.08)"/><path class="cls-6" d="M110.92,310.8c-.58.87-3.73-.23-7-2.46s-5.5-4.72-4.92-5.59,3.73.24,7,2.46S111.51,309.94,110.92,310.8Z" transform="translate(-63 -268.08)"/><path class="cls-3" d="M118.71,316c-.29.43-1.46.15-2.61-.63s-1.86-1.76-1.56-2.19,1.46-.15,2.61.63,1.86,1.75,1.56,2.19" transform="translate(-63 -268.08)"/><path class="cls-6" d="M118.71,316c-.29.43-1.46.15-2.61-.63s-1.86-1.76-1.56-2.19,1.46-.15,2.61.63S119,315.55,118.71,316Z" transform="translate(-63 -268.08)"/><line class="cls-3" x1="41.95" y1="38.7" x2="53.62" y2="46.5"/><line class="cls-8" x1="41.95" y1="38.7" x2="53.62" y2="46.5"/><path class="cls-3" d="M105.78,316.56c-.26,1-3.59,1.06-7.45.1s-6.78-2.56-6.53-3.58,3.59-1.05,7.45-.09,6.78,2.56,6.53,3.57" transform="translate(-63 -268.08)"/><path class="cls-6" d="M105.78,316.56c-.26,1-3.59,1.06-7.45.1s-6.78-2.56-6.53-3.58,3.59-1.05,7.45-.09S106,315.55,105.78,316.56Z" transform="translate(-63 -268.08)"/><path class="cls-3" d="M114.87,318.77c-.12.51-1.32.65-2.67.31s-2.34-1-2.22-1.53,1.33-.64,2.68-.3,2.34,1,2.21,1.52" transform="translate(-63 -268.08)"/><path class="cls-6" d="M114.87,318.77c-.12.51-1.32.65-2.67.31s-2.34-1-2.22-1.53,1.33-.64,2.68-.3S115,318.26,114.87,318.77Z" transform="translate(-63 -268.08)"/><line class="cls-3" x1="35.79" y1="46.74" x2="49.43" y2="50.08"/><line class="cls-8" x1="35.79" y1="46.74" x2="49.43" y2="50.08"/></g><path class="cls-3" d="M211.32,504.24v0Z" transform="translate(-63 -268.08)"/><line class="cls-5" x1="148.32" y1="155.88" x2="148.32" y2="236.16"/><polyline class="cls-3" points="154.08 169.92 153.13 199.08 151.92 236.16"/><polyline class="cls-8" points="154.08 169.92 153.13 199.08 151.92 236.16"/><g class="cls-2"><path class="cls-3" d="M146.16,499.2H158s3.24,5.4,0,9,63.44,3.5,74.88-22.23c3.26-7.33,2.6-12.33-4.6-31.77,0,0-13.76-21.6,9.64-30.24l1.44,18.48s-10.8.6-7.56,11,11,32.71,7.56,41.76c-3.08,8-7.92,21.6-23,25.56H151.77s-5.61-3.6-5.61-7.92,4.32-9.36,0-13.68" transform="translate(-63 -268.08)"/><path class="cls-9" d="M146.16,499.2H158s3.24,5.4,0,9,63.44,3.5,74.88-22.23c3.26-7.33,2.6-12.33-4.6-31.77,0,0-13.76-21.6,9.64-30.24l1.44,18.48s-10.8.6-7.56,11,11,32.71,7.56,41.76c-3.08,8-7.92,21.6-23,25.56H151.77s-5.61-3.6-5.61-7.92S150.48,503.52,146.16,499.2Z" transform="translate(-63 -268.08)"/><line class="cls-10" x1="158.4" y1="183.6" x2="178.92" y2="181.4"/><line class="cls-10" x1="178.92" y1="188.64" x2="168.66" y2="188.64"/><line class="cls-10" x1="169.18" y1="194.03" x2="178.92" y2="194.03"/></g></svg>