<?xml version="1.0" encoding="UTF-8" standalone="no" ?>
<!DOCTYPE svg PUBLIC "-//W3C//DTD SVG 1.1//EN" "http://www.w3.org/Graphics/SVG/1.1/DTD/svg11.dtd">
<svg xmlns="http://www.w3.org/2000/svg" xmlns:xlink="http://www.w3.org/1999/xlink" version="1.1" width="60" height="60" viewBox="0 0 60 60" xml:space="preserve">
<desc>Created with Fabric.js 4.2.0</desc>
<defs>
</defs>
<rect x="0" y="0" width="100%" height="100%" fill="transparent"></rect>
<g transform="matrix(0 0 0 0 0 0)" id="5add4e67-4307-40e7-bc3f-50288c050de5"  >
</g>
<g transform="matrix(1 0 0 1 30 30)" id="08892f70-25c4-474d-8c20-b3eb5a1e8f87"  >
<rect style="stroke: none; stroke-width: 1; stroke-dasharray: none; stroke-linecap: butt; stroke-dashoffset: 0; stroke-linejoin: miter; stroke-miterlimit: 4; fill: rgb(255,255,255); fill-opacity: 0; fill-rule: nonzero; opacity: 1;" vector-effect="non-scaling-stroke"  x="-30" y="-30" rx="0" ry="0" width="60" height="60" />
</g>
<g transform="matrix(0.11 0 0 0.11 30.5 30.5)"  >
<path style="stroke: rgb(166,92,35); stroke-width: 2; stroke-dasharray: none; stroke-linecap: butt; stroke-dashoffset: 0; stroke-linejoin: miter; stroke-miterlimit: 4; fill: rgb(166,92,35); fill-rule: nonzero; opacity: 1;" vector-effect="non-scaling-stroke"  transform=" translate(-252.85, -252.85)" d="M 427.554 71.862 C 328.34799999999996 -23.954000000000008 171.06799999999998 -23.954000000000008 71.86199999999997 71.862 C -26.360000000000028 173.559 -23.543000000000035 335.624 78.15399999999997 433.846 C 177.35999999999996 529.662 334.64 529.662 433.846 433.846 C 532.068 332.15 529.251 170.084 427.554 71.862 z M 421.814 421.814 L 421.72900000000004 421.72900000000004 C 328.37700000000007 514.9960000000001 177.09300000000005 514.927 83.82600000000002 421.57500000000005 C -9.441000000000003 328.22300000000007 -9.372 176.94 83.98 83.673 C 177.332 -9.593999999999994 328.616 -9.524999999999991 421.88300000000004 83.82600000000001 C 466.682 128.666 491.82900000000006 189.469 491.788 252.85399999999998 C 491.792 316.225 466.622 377.002 421.814 421.814 z" stroke-linecap="round" />
</g>
<g transform="matrix(0.11 0 0 0.11 30 30)"  >
<path style="stroke: rgb(166,92,35); stroke-width: 1; stroke-dasharray: none; stroke-linecap: butt; stroke-dashoffset: 0; stroke-linejoin: miter; stroke-miterlimit: 4; fill: rgb(166,92,35); fill-rule: nonzero; opacity: 1;" vector-effect="non-scaling-stroke"  transform=" translate(-252.75, -253.03)" d="M 396.641 325.729 L 348.684 277.942 C 337.8 267.032 320.132 267.011 309.22200000000004 277.895 C 309.206 277.911 309.19100000000003 277.926 309.175 277.942 L 281.69800000000004 305.419 C 279.619 307.503 276.343 307.791 273.93300000000005 306.102 C 258.89400000000006 295.592 244.81600000000006 283.769 231.86400000000003 270.774 C 220.26400000000004 259.2 209.59300000000002 246.732 199.94900000000004 233.483 C 198.20100000000005 231.103 198.45500000000004 227.803 200.54600000000005 225.71800000000002 L 228.70600000000005 197.55800000000002 C 239.57800000000003 186.66500000000002 239.57800000000003 169.02700000000002 228.70600000000005 158.13400000000001 L 180.74900000000005 110.17700000000002 C 169.69800000000006 99.61200000000002 152.29100000000005 99.61200000000002 141.24000000000007 110.17700000000002 L 126.05100000000007 125.36600000000001 C 103.11200000000008 148.04700000000003 94.92300000000007 181.72500000000002 104.88800000000008 212.406 C 112.32400000000007 234.853 122.83500000000008 256.161 136.12000000000006 275.723 C 148.08000000000007 293.65700000000004 161.80100000000007 310.351 177.08000000000007 325.558 C 193.69100000000006 342.288 212.09100000000007 357.139 231.94900000000007 369.846 C 253.77900000000005 384.091 277.74800000000005 394.75 302.9460000000001 401.419 C 309.4240000000001 403.01599999999996 316.07200000000006 403.818 322.7430000000001 403.808 C 345.6140000000001 403.668 367.4950000000001 394.462 383.5860000000001 378.20799999999997 L 396.6420000000001 365.152 C 407.513 354.26 407.513 336.622 396.641 325.729 z M 384.557 353.514 C 384.546 353.52500000000003 384.535 353.53700000000003 384.523 353.548 L 384.608 353.29200000000003 L 371.552 366.348 C 354.77700000000004 383.33500000000004 330.346 390.324 307.125 384.78000000000003 C 283.73 378.51800000000003 261.49 368.55 241.248 355.25500000000005 C 222.44199999999998 343.23600000000005 205.01399999999998 329.18600000000004 189.27999999999997 313.35600000000005 C 174.80299999999997 298.98500000000007 161.79699999999997 283.20500000000004 150.45299999999997 266.25200000000007 C 138.045 248.01000000000008 128.224 228.13800000000006 121.26899999999998 207.20100000000008 C 113.29599999999998 182.60500000000008 119.90299999999998 155.61600000000007 138.33599999999998 137.4840000000001 L 153.52499999999998 122.2950000000001 C 157.748 118.0530000000001 164.60999999999999 118.0380000000001 168.85099999999997 122.2610000000001 C 168.86199999999997 122.27200000000009 168.87399999999997 122.2830000000001 168.88499999999996 122.2950000000001 L 216.84199999999996 170.2520000000001 C 221.08399999999995 174.4750000000001 221.09899999999996 181.3370000000001 216.87599999999995 185.5780000000001 C 216.86499999999995 185.58900000000008 216.85399999999996 185.60000000000008 216.84199999999996 185.61200000000008 L 188.68199999999996 213.77200000000008 C 180.60199999999995 221.76400000000007 179.58599999999996 234.46400000000008 186.29299999999995 243.63900000000007 C 196.47799999999995 257.6170000000001 207.74899999999994 270.7700000000001 219.99999999999994 282.97800000000007 C 233.65899999999993 296.6960000000001 248.50799999999995 309.17500000000007 264.37299999999993 320.26900000000006 C 273.5399999999999 326.66300000000007 285.96799999999996 325.58500000000004 293.8979999999999 317.70900000000006 L 321.1189999999999 290.06100000000004 C 325.3419999999999 285.819 332.2039999999999 285.80400000000003 336.44499999999994 290.02700000000004 C 336.45599999999996 290.03800000000007 336.4669999999999 290.04900000000004 336.4789999999999 290.06100000000004 L 384.52199999999993 338.189 C 388.765 342.411 388.78 349.272 384.557 353.514 z" stroke-linecap="round" />
</g>
</svg>