<svg id="Livello_1" data-name="Livello 1" xmlns="http://www.w3.org/2000/svg" xmlns:xlink="http://www.w3.org/1999/xlink" viewBox="0 0 300.73 132.45"><defs><style>.cls-1,.cls-4{fill:none;}.cls-2{clip-path:url(#clip-path);}.cls-3{fill:#A65C23;}.cls-4{stroke:#A65C23;stroke-miterlimit:10;stroke-width:2px;}</style><clipPath id="clip-path" transform="translate(-244.24 -375.75)"><rect class="cls-1" width="595.28" height="841.89"/></clipPath></defs><title>Name</title><g class="cls-2"><path class="cls-3" d="M258.16,409.68c0,3.66-.23,5.78,4,5.78,14.63,0,13.8-7.73,16.05-7.73.23,0,.64.18.64,1.3,0,4.6-3.48,9.44-8.32,9.44-9,0-12.5-.24-15.45-.24-1.83,0-4.31.24-7.56.24-.76,0-1.12-.29-1.12-.65,0-2.71,4.49.47,4.49-6.73V383.18c0-5-6.67-3.42-6.67-5.48,0-.53.65-1,1.89-1,2.36,0,5.78.24,8,.24,5,0,5.72-.24,6.67-.24,1.24,0,1.53.06,1.53.77,0,2.24-4.19.06-4.19,4.54Z" transform="translate(-244.24 -375.75)"/><path class="cls-3" d="M295,404c-1,0-2.24.23-3.6,4.13a17,17,0,0,0-1.24,4.66c0,4.25,6.37,3.3,6.37,4.89,0,1.24-1.83.83-3.07.83-1.88,0-3.65-.24-5.54-.24s-3.48.24-5.19.24c-.83,0-1.77.12-1.77-.65,0-1.36,3-1,4.48-4.31l16-35.69c.41-.95.71-2.07,1.48-2.07.53,0,.65.12,1.41,1.89l15.93,36.11c1.89,4.19,5.08,1.89,5.08,3.84,0,1-.53.88-2.13.88-2.12,0-3.71-.24-7.61-.24-2.59,0-4.78.24-6.49.24-1.06,0-1.83.12-1.83-.71,0-1.71,4.19-1.06,4.19-4.66a10.13,10.13,0,0,0-1.06-4c-1.95-4.61-2.24-5.19-3.78-5.19Zm9.79-3.19c1.07,0,1.89.06,1.89-.53a5.47,5.47,0,0,0-.65-2.19l-4.84-10.68c-.35-.47-.17-.47-.47-.47-.12,0-.35.06-.65.71l-4.54,10.44a5.47,5.47,0,0,0-.65,2.19c0,.59.83.53,1.89.53Z" transform="translate(-244.24 -375.75)"/><path class="cls-3" d="M356.28,410.39c0,7.37,6,5.13,6,7.2,0,1-.59.88-1.42.88-4.13,0-6.72-.24-8-.24-2.36,0-6.91.24-7.26.24-.18,0-1.24.12-1.24-.88,0-1.72,4.72-.42,4.72-7.79v-26c0-6.25-6.13-3.83-6.13-6,0-.36.23-1.13,1.65-1.13.41,0,3.66.24,8.14.24.83,0,5-.18,9.21-.24,7.55-.11,14.87,2.84,14.87,11.45,0,7.38-5.49,11.86-12.51,11.86-5.79,0-6.08-1.47-6.08-1.71,0-.41.12-1.12.82-1.12a24.36,24.36,0,0,0,2.78.35c7.14,0,7.67-6.66,7.73-8.2s-.47-10.15-9.62-10.15c-2.66,0-3.6,1.18-3.6,3.84Z" transform="translate(-244.24 -375.75)"/><path class="cls-3" d="M402,376.16c11.5-.11,20.3,7.5,20.3,20,0,8.26-3.6,22.71-22.43,22.71-11.86,0-19.82-8-19.82-19.94,0-12.92,7.85-22.66,21.95-22.78m-.42,40.19c10.15-.18,13.46-8.09,13.46-17.88,0-13-7.2-19.89-14.81-19.77-10,.18-12.93,8.32-12.93,16.88s3.72,20.94,14.28,20.77" transform="translate(-244.24 -375.75)"/><path class="cls-3" d="M431.21,384.13c0-6.61-6.43-4.43-6.43-6.55,0-.59.59-.89,1.3-.89,2.71,0,3.18.24,6.9.24,3.95,0,8-.24,11.92-.24,12.92,0,14.1,8.32,14.1,11a9,9,0,0,1-3.42,7.37c-1.71,1.36-3.42,1.89-3.42,2.48,0,.36,5,8.91,9.26,16.35a2.27,2.27,0,0,0,2.12.94c.59,0,1.18-.35,1.77-.35a.82.82,0,0,1,.89.82c0,1.83-3.89,3.13-6.25,3.13-4.67,0-6.55-3.72-8.38-7.14l-5-9.32c-1.36-2.6-2.42-3.13-5.37-3.13-3.13,0-2.77.41-2.77,2.48v10.21c0,6.31,5.84,3.89,5.84,6,0,.53-.47.88-1.83.88-1,0-2.6-.24-5.08-.24-3.18,0-6.13.24-9.08.24-.65,0-1.89.18-1.89-1,0-1.89,4.78.06,4.78-7.38Zm7.26,10.56c0,1.48,2.18,1.48,3.95,1.48,9,0,9.32-3.31,9.32-6.79,0-5.78-3.3-10.15-9.26-10.15-2.18,0-4,0-4,3.54Z" transform="translate(-244.24 -375.75)"/><path class="cls-3" d="M480.36,383.36c0-2.83-.59-3.12-3-3.12h-5c-6.67,0-4.9,7.73-7.55,7.73-1.24,0-.89-1.3-.77-2.07l.95-7.79c.05-.59.05-1.41.94-1.41,5.49,0,9.44.23,18.06.23s12.56-.23,18.05-.23c.89,0,.89.82.95,1.41l.64,5.43c.12.71.77,3-.76,3-2.36,0-.48-6.55-7.26-6.31h-5c-2.41,0-3,.29-3,3.12V410c0,7.26,7.56,5.55,7.56,7.2,0,1.42-1.18,1.24-2.89,1.24-2.36,0-4.31-.23-8.26-.23s-5.9.23-8.27.23c-1.06,0-2.06.06-2.06-1.24,0-2.3,6.67.53,6.67-6.49Z" transform="translate(-244.24 -375.75)"/><path class="cls-3" d="M514.63,404c-1,0-2.24.23-3.6,4.13a17,17,0,0,0-1.23,4.66c0,4.25,6.37,3.3,6.37,4.89,0,1.24-1.83.83-3.07.83-1.89,0-3.66-.24-5.55-.24s-3.48.24-5.19.24c-.83,0-1.77.12-1.77-.65,0-1.36,3-1,4.49-4.31l16-35.69c.41-.95.7-2.07,1.47-2.07.53,0,.65.12,1.42,1.89l15.93,36.11c1.89,4.19,5.07,1.89,5.07,3.84,0,1-.53.88-2.12.88-2.13,0-3.72-.24-7.61-.24-2.6,0-4.78.24-6.49.24-1.07,0-1.83.12-1.83-.71,0-1.71,4.19-1.06,4.19-4.66a10.16,10.16,0,0,0-1.07-4c-1.94-4.61-2.24-5.19-3.77-5.19Zm9.8-3.19c1.06,0,1.89.06,1.89-.53a5.63,5.63,0,0,0-.65-2.19l-4.84-10.68c-.35-.47-.18-.47-.47-.47-.12,0-.36.06-.65.71l-4.54,10.44a5.47,5.47,0,0,0-.65,2.19c0,.59.82.53,1.89.53Z" transform="translate(-244.24 -375.75)"/><path class="cls-3" d="M250.73,437.89c0-6-6.31-4.07-6.31-6.25a1.07,1.07,0,0,1,1.06-.95c1.12,0,2.3.24,8.14.24,3.07,0,6.08-.24,9.15-.24,7.9,0,25.07.95,25.07,19.42,0,17.05-15.4,22.36-21.71,22.36-6.9,0-10.15-.24-12.33-.24-1.83,0-3.6.24-5.43.24-1,0-2.36.24-2.36-.82,0-2.25,4.72,0,4.72-5.32Zm7.26,28c0,3.9,4.36,4.31,6.66,4.31,9.21,0,15.76-6,15.76-18.23,0-5.61-2.89-19.06-17.64-19.06-4.43,0-4.78,1.47-4.78,5.54Z" transform="translate(-244.24 -375.75)"/><path class="cls-3" d="M303.3,437c0,5.9-6.61,11.74-9.56,11.74A.62.62,0,0,1,293,448c0-1.24,4.43-2.71,4.43-6.84,0-3.78-4.19-4.72-4.19-6,0-.59.88-1.3,2.36-2.6.94-.88,2.18-2.36,3.18-2.36,2.13,0,4.49,3.31,4.49,6.79" transform="translate(-244.24 -375.75)"/><path class="cls-3" d="M321.23,458c-1,0-2.24.23-3.6,4.12a17.16,17.16,0,0,0-1.23,4.67c0,4.25,6.37,3.3,6.37,4.89,0,1.24-1.83.83-3.07.83-1.89,0-3.66-.24-5.55-.24s-3.48.24-5.19.24c-.83,0-1.77.12-1.77-.65,0-1.36,3-1,4.49-4.31l16-35.69c.41-.95.7-2.07,1.47-2.07.53,0,.65.12,1.42,1.89l15.93,36.11c1.89,4.19,5.07,1.89,5.07,3.83,0,1-.53.89-2.12.89-2.13,0-3.72-.24-7.61-.24-2.6,0-4.78.24-6.49.24-1.07,0-1.83.12-1.83-.71,0-1.71,4.19-1.06,4.19-4.66a10.16,10.16,0,0,0-1.07-4c-1.94-4.61-2.24-5.19-3.77-5.19Zm9.8-3.19c1.06,0,1.89.06,1.89-.53a5.63,5.63,0,0,0-.65-2.19l-4.84-10.68c-.35-.47-.18-.47-.47-.47-.12,0-.36.06-.65.71l-4.54,10.44a5.47,5.47,0,0,0-.65,2.19c0,.59.82.53,1.89.53Z" transform="translate(-244.24 -375.75)"/><path class="cls-3" d="M392,443.38c.06.59.29,1.95-.71,1.95s-1.36-1.24-1.77-2c-2.95-5.66-8.14-10.8-15-10.8-8.67,0-13.45,8.26-13.45,16.17,0,8.32,4.72,20,16,20,9.15,0,13.16-7.73,14.69-7.73.3,0,.83.3.83.65,0,2.36-6.26,11.27-18.82,11.27-17.29,0-19.95-15.1-19.95-19.76,0-9.92,6.08-23,20.95-23,7.14,0,11.68,3.6,13.45,3.6,1.12,0,1.18-1.94,2-1.94.29,0,.71.05.71.35Z" transform="translate(-244.24 -375.75)"/><path class="cls-3" d="M409.2,472.82a2.5,2.5,0,0,0-1.53-.59c-5.19,0-5,7.85-6.26,7.85s-1.35-1.06-1.35-2.18c0-6.08,3.89-7.44,3.89-8.2,0-1.24-7.55-5.25-7.55-16.76,0-12.92,7.85-22.66,22-22.78,11.5-.12,20.3,7.5,20.3,20,0,18.76-15.35,21.83-15.35,22.77,0,1.18,7,5.14,10.39,5.14,2.65,0,3.84-1.66,4.72-1.66.35,0,.53.36.53.77,0,.89-4.84,5.78-9.79,5.78-1.77,0-4.19-.11-8.38-2.77Zm8.74-2.18c12.33,0,13.45-12.33,13.45-18.17,0-13-7.2-19.89-14.81-19.77-10,.18-12.92,8.32-12.92,16.88s3.77,21.06,14.28,21.06" transform="translate(-244.24 -375.75)"/><path class="cls-3" d="M482.48,450.93c0,12-3.36,21.95-19.64,21.95-11,0-16.94-5.13-16.94-16.58V437.07c0-5.08-6.14-3.19-6.14-5.43,0-.77.77-.95,1.24-.95.77,0,5.2.24,8.15.24s7.19-.24,8.32-.24c.53,0,.64.48.64.83,0,2-4.95-1.12-4.95,8.56v12.8c0,9,2.36,16.52,12.92,16.52,11.74,0,13.28-9.32,13.28-19.29V438.42c0-6.78-7.26-4.95-7.26-7.08,0-.94,1-.65,1.77-.65,1.71.12,3.3.24,5,.24,1.94,0,3.77-.12,6.72-.24.71,0,1.06.12,1.06.77,0,1.59-4.13-.53-4.13,6.14Z" transform="translate(-244.24 -375.75)"/><path class="cls-3" d="M503.31,458c-1,0-2.24.23-3.6,4.12a16.82,16.82,0,0,0-1.24,4.67c0,4.25,6.37,3.3,6.37,4.89,0,1.24-1.83.83-3.07.83-1.89,0-3.65-.24-5.54-.24s-3.48.24-5.2.24c-.82,0-1.77.12-1.77-.65,0-1.36,3-1,4.49-4.31l16-35.69c.41-.95.71-2.07,1.47-2.07.54,0,.65.12,1.42,1.89l15.93,36.11c1.89,4.19,5.08,1.89,5.08,3.83,0,1-.53.89-2.13.89-2.12,0-3.72-.24-7.61-.24-2.6,0-4.78.24-6.49.24-1.06,0-1.83.12-1.83-.71,0-1.71,4.19-1.06,4.19-4.66a10.13,10.13,0,0,0-1.06-4c-2-4.61-2.24-5.19-3.78-5.19Zm9.79-3.19c1.06,0,1.89.06,1.89-.53a5.47,5.47,0,0,0-.65-2.19l-4.84-10.68c-.35-.47-.17-.47-.47-.47-.12,0-.35.06-.65.71l-4.54,10.44a5.47,5.47,0,0,0-.65,2.19c0,.59.83.53,1.89.53Z" transform="translate(-244.24 -375.75)"/><line class="cls-4" x1="9.44" y1="110.22" x2="183.32" y2="110.22"/><path class="cls-3" d="M258.5,508.2a4.09,4.09,0,0,1-4.3-4.14,4.47,4.47,0,0,1,4.54-4.66,4.14,4.14,0,0,1,4.42,4.18,4.43,4.43,0,0,1-4.66,4.62m-2.18-5.28c-.06,1.32.58,4.58,2.8,4.58,1.56,0,2-1.16,2-2.52,0-1.6-.58-4.94-2.74-4.94-1.74,0-2,1.44-2.08,2.88" transform="translate(-244.24 -375.75)"/><path class="cls-3" d="M265.26,501.58c0-1-1.28-.4-1.28-1,0-.32.3-.34,1-.52a7.8,7.8,0,0,0,2.16-.86c.24,0,.24.14.24.4v1.14h0a3.08,3.08,0,0,1,2.72-1.38c2.16,0,3,1.78,3,3.72v3.24c0,1.26,1.24,1,1.24,1.4,0,.24-.12.3-.46.3-.64,0-1.28-.08-1.7-.08s-1.22.08-1.46.08-.66.1-.66-.26.92-.52.92-1.26v-3.4c0-1.3-.46-2.44-2-2.44-1.32,0-1.72.76-1.72,1.92v3.7c0,1.14,1.62,1,1.62,1.44,0,.18-.14.3-.62.3-.22,0-.94-.08-2-.08-.7,0-1.4.08-2,.08-.2,0-.22-.12-.22-.22,0-.58,1.06,0,1.06-1.7Z" transform="translate(-244.24 -375.75)"/><path class="cls-3" d="M286.36,496.16c0-1-.2-1.06-1-1.06h-1.68c-2.26,0-1.66,2.62-2.56,2.62-.42,0-.3-.44-.26-.7l.32-2.64c0-.2,0-.48.32-.48,1.86,0,3.2.08,6.12.08s4.26-.08,6.12-.08c.3,0,.3.28.32.48l.22,1.84c0,.24.26,1-.26,1-.8,0-.16-2.22-2.46-2.14h-1.7c-.82,0-1,.1-1,1.06v9c0,2.46,2.56,1.88,2.56,2.44s-.4.42-1,.42c-.8,0-1.46-.08-2.8-.08s-2,.08-2.8.08c-.36,0-.7,0-.7-.42,0-.78,2.26.18,2.26-2.2Z" transform="translate(-244.24 -375.75)"/><path class="cls-3" d="M304.24,506.36c0,1.36,1.24.82,1.24,1.52a.18.18,0,0,1-.18.18c-.72,0-1.46-.08-2.18-.08-.5,0-1,.08-1.66.08-.1,0-.32.06-.32-.2s1-.44,1-1.54V503.4c0-1.34-.28-2.74-2-2.74a2.24,2.24,0,0,0-1.36.56c-.3.26-.38.28-.38.66v4.32c0,1.38,1.58,1.06,1.58,1.62,0,.32-.34.24-.9.24s-1-.08-2-.08c-.6,0-.82.08-1.22.08-.16,0-.6,0-.6-.22,0-.52,1.06-.3,1.06-1.16v-11c0-1.18-1.32-.54-1.32-1.12,0-.34.3-.26,1.58-.7,1.54-.44,1.48-.8,1.82-.8s0,.56,0,1.68v6.1h0a3.6,3.6,0,0,1,2.76-1.46c1.94,0,3,1.16,3,3.48Z" transform="translate(-244.24 -375.75)"/><path class="cls-3" d="M309,503.16c-.36,0-.44-.14-.44.5a3.12,3.12,0,0,0,3,3.28c1.18,0,2.16-1.06,2.48-1.06.08,0,.2,0,.2.24,0,.5-1.68,2.08-3.74,2.08a3.77,3.77,0,0,1-3.94-4c0-2.3,1.3-4.8,3.88-4.8a3.67,3.67,0,0,1,3.76,3.32c0,.44-.12.44-.24.44Zm2.54-.7c.34,0,.46,0,.46-.54a1.9,1.9,0,0,0-1.82-1.94c-1.2,0-1.64,1.18-1.64,2.1,0,.32,0,.38.1.38Z" transform="translate(-244.24 -375.75)"/><path class="cls-3" d="M334.06,498.56c0,.26-.12.36-.5.36s-.44-4.36-5.7-4.36c-1.86,0-4.5,1.22-4.5,6.28,0,2.74,1.4,6.38,4.64,6.38,3.6,0,3.66-1.68,3.66-2.84,0-3.12-2.38-1.76-2.38-2.52,0-.58.64-.42,1-.42.94,0,1.86.08,2.8.08.74,0,1.44-.08,2.16-.08.1,0,.22.08.22.28,0,.86-1.38-.22-1.38,2.34,0,.82.06,1.38.06,1.66s0,.42-.2.52a13.68,13.68,0,0,1-6.3,2c-5.86,0-6.76-5.12-6.76-6.7,0-3.36,2.06-7.78,7.1-7.78,2.78,0,4.46,1.3,5,1.3s.48-.56.8-.56.3.44.3.76Z" transform="translate(-244.24 -375.75)"/><path class="cls-3" d="M339.76,505.9c0,1.84,1.86,1.24,1.86,1.82a.32.32,0,0,1-.3.34c-.48,0-1.62-.08-2.28-.08-.94,0-1.52.08-2,.08-.26,0-.34,0-.34-.2,0-.62,1-.1,1-1.58v-4.7c0-1-1.28-.4-1.28-1,0-.32.3-.34,1-.52a7.8,7.8,0,0,0,2.16-.86c.24,0,.24.14.24.4v1.54c.88-1,1.6-1.78,2.1-1.78s1.58.9,1.58,1.28c0,.74-.68,1.68-1,1.68s-.5-.8-1.6-.8-1,1.52-1,1.68Z" transform="translate(-244.24 -375.75)"/><path class="cls-3" d="M351,505.78c0,1,0,1.24.54,1.24.24,0,.5-.1.64-.1s.22.08.22.18c0,.4-1.22,1.1-1.94,1.1a1.33,1.33,0,0,1-1.3-1.22A5.28,5.28,0,0,1,346,508.2a1.81,1.81,0,0,1-1.88-1.88c0-2.46,2.66-2.8,4.72-3.32,0-1.72-.14-2.94-1.72-2.94-.76,0-.92.2-.92,1.12s-1.28.94-1.42.94-.52,0-.52-.42c0-1.74,2.26-2.3,3.66-2.3,2.06,0,3,.92,3,2.94Zm-2.12-1.38c0-.54,0-.72-.14-.72-.78,0-2.36.68-2.36,2,0,.32,0,1.32,1.06,1.32.44,0,1.44-.22,1.44-.68Z" transform="translate(-244.24 -375.75)"/><path class="cls-3" d="M354.16,501.58c0-1-1.28-.4-1.28-1,0-.32.3-.34,1-.52a7.8,7.8,0,0,0,2.16-.86c.24,0,.24.14.24.4v1.14h0A3.08,3.08,0,0,1,359,499.4c2.16,0,3,1.78,3,3.72v3.24c0,1.26,1.24,1,1.24,1.4,0,.24-.12.3-.46.3-.64,0-1.28-.08-1.7-.08s-1.22.08-1.46.08-.66.1-.66-.26.92-.52.92-1.26v-3.4c0-1.3-.46-2.44-2-2.44-1.32,0-1.72.76-1.72,1.92v3.7c0,1.14,1.62,1,1.62,1.44,0,.18-.14.3-.62.3-.22,0-.94-.08-2-.08-.7,0-1.4.08-2,.08-.2,0-.22-.12-.22-.22,0-.58,1.06,0,1.06-1.7Z" transform="translate(-244.24 -375.75)"/><path class="cls-3" d="M370,495.88c0-1.48-1.34-.6-1.34-1.3,0-.54,1.06-.22,2.94-1.36a.65.65,0,0,1,.34-.14c.22,0,.18.22.18.54v12.16c0,1.66,1.34.8,1.34,1.44,0,.4-1.36.4-2.38.74a5,5,0,0,1-.82.24c-.26,0-.26-.3-.26-1.32a3.82,3.82,0,0,1-2.82,1.32c-2.74,0-3.4-3-2.94-5.14a4.26,4.26,0,0,1,3.94-3.66,3,3,0,0,1,1.82.5Zm0,5.58a2.59,2.59,0,0,0-2.2-1.32c-1.58,0-1.94,1.78-1.94,3s.8,3.66,2.48,3.66a2.33,2.33,0,0,0,1.4-.44c.32-.28.26-.52.26-.92Z" transform="translate(-244.24 -375.75)"/><path class="cls-3" d="M392.7,498.2c0,.2.1.66-.24.66s-.46-.42-.6-.68c-1-1.92-2.76-3.66-5.08-3.66-2.94,0-4.56,2.8-4.56,5.48s1.6,6.78,5.42,6.78c3.1,0,4.46-2.62,5-2.62.1,0,.28.1.28.22,0,.8-2.12,3.82-6.38,3.82-5.86,0-6.76-5.12-6.76-6.7,0-3.36,2.06-7.78,7.1-7.78,2.42,0,4,1.22,4.56,1.22.38,0,.4-.66.68-.66.1,0,.24,0,.24.12Z" transform="translate(-244.24 -375.75)"/><path class="cls-3" d="M401,505.78c0,1,0,1.24.54,1.24.24,0,.5-.1.64-.1s.22.08.22.18c0,.4-1.22,1.1-1.94,1.1a1.33,1.33,0,0,1-1.3-1.22A5.28,5.28,0,0,1,396,508.2a1.81,1.81,0,0,1-1.88-1.88c0-2.46,2.66-2.8,4.72-3.32,0-1.72-.14-2.94-1.72-2.94-.76,0-.92.2-.92,1.12s-1.28.94-1.42.94-.52,0-.52-.42c0-1.74,2.26-2.3,3.66-2.3,2.06,0,3,.92,3,2.94Zm-2.12-1.38c0-.54,0-.72-.14-.72-.78,0-2.36.68-2.36,2,0,.32,0,1.32,1.06,1.32.44,0,1.44-.22,1.44-.68Z" transform="translate(-244.24 -375.75)"/><path class="cls-3" d="M404.16,501.58c0-1-1.28-.4-1.28-1,0-.32.3-.34,1-.52a7.8,7.8,0,0,0,2.16-.86c.24,0,.24.14.24.4v1.14h0A3.08,3.08,0,0,1,409,499.4c2.16,0,3,1.78,3,3.72v3.24c0,1.26,1.24,1,1.24,1.4,0,.24-.12.3-.46.3-.64,0-1.28-.08-1.7-.08s-1.22.08-1.46.08-.66.1-.66-.26.92-.52.92-1.26v-3.4c0-1.3-.46-2.44-2-2.44-1.32,0-1.72.76-1.72,1.92v3.7c0,1.14,1.62,1,1.62,1.44,0,.18-.14.3-.62.3-.22,0-.94-.08-2-.08-.7,0-1.4.08-2,.08-.2,0-.22-.12-.22-.22,0-.58,1.06,0,1.06-1.7Z" transform="translate(-244.24 -375.75)"/><path class="cls-3" d="M421,505.78c0,1,0,1.24.54,1.24.24,0,.5-.1.64-.1s.22.08.22.18c0,.4-1.22,1.1-1.94,1.1a1.33,1.33,0,0,1-1.3-1.22A5.28,5.28,0,0,1,416,508.2a1.81,1.81,0,0,1-1.88-1.88c0-2.46,2.66-2.8,4.72-3.32,0-1.72-.14-2.94-1.72-2.94-.76,0-.92.2-.92,1.12s-1.28.94-1.42.94-.52,0-.52-.42c0-1.74,2.26-2.3,3.66-2.3,2.06,0,3,.92,3,2.94Zm-2.12-1.38c0-.54,0-.72-.14-.72-.78,0-2.36.68-2.36,2,0,.32,0,1.32,1.06,1.32.44,0,1.44-.22,1.44-.68Z" transform="translate(-244.24 -375.75)"/><path class="cls-3" d="M424.22,495.7c0-1.18-1.32-.54-1.32-1.12,0-.34.3-.26,1.58-.7,1.54-.44,1.48-.8,1.82-.8s0,.56,0,1.68v11.46c0,1.42,1.48,1.14,1.48,1.58,0,.2-.08.26-.42.26s-1.64-.08-2.24-.08-1.36.08-1.78.08c-.16,0-.34,0-.34-.2,0-.62,1.18.18,1.18-1.7Z" transform="translate(-244.24 -375.75)"/></g></svg>