<svg width="301" height="133" viewBox="0 0 301 133" fill="none" xmlns="http://www.w3.org/2000/svg">
<g clip-path="url(#clip0_0_38)">
<mask id="mask0_0_38" style="mask-type:luminance" maskUnits="userSpaceOnUse" x="-245" y="-376" width="597" height="843">
<path d="M351.04 -375.75H-244.24V466.14H351.04V-375.75Z" fill="white"/>
</mask>
<g mask="url(#mask0_0_38)">
<path d="M13.92 33.93C13.92 37.59 13.69 39.71 17.92 39.71C32.55 39.71 31.72 31.98 33.97 31.98C34.2 31.98 34.61 32.16 34.61 33.28C34.61 37.88 31.13 42.72 26.29 42.72C17.29 42.72 13.79 42.48 10.84 42.48C9.01001 42.48 6.53001 42.72 3.28001 42.72C2.52001 42.72 2.16 42.43 2.16 42.07C2.16 39.36 6.65001 42.54 6.65001 35.34V7.42999C6.65001 2.42999 -0.019989 4.01001 -0.019989 1.95001C-0.019989 1.42001 0.63001 0.950012 1.87001 0.950012C4.23001 0.950012 7.65001 1.19 9.87001 1.19C14.87 1.19 15.59 0.950012 16.54 0.950012C17.78 0.950012 18.07 1.01 18.07 1.72C18.07 3.96 13.88 1.78001 13.88 6.26001L13.92 33.93Z" fill="black"/>
<path d="M50.76 28.25C49.76 28.25 48.52 28.48 47.16 32.38C46.5273 33.8665 46.1098 35.4356 45.92 37.04C45.92 41.29 52.29 40.34 52.29 41.93C52.29 43.17 50.46 42.76 49.22 42.76C47.34 42.76 45.57 42.52 43.68 42.52C41.79 42.52 40.2 42.76 38.49 42.76C37.66 42.76 36.72 42.88 36.72 42.11C36.72 40.75 39.72 41.11 41.2 37.8L57.2 2.10999C57.61 1.15999 57.91 0.0400085 58.68 0.0400085C59.21 0.0400085 59.33 0.159993 60.09 1.92999L76.02 38.04C77.91 42.23 81.1 39.93 81.1 41.88C81.1 42.88 80.57 42.76 78.97 42.76C76.85 42.76 75.26 42.52 71.36 42.52C68.77 42.52 66.58 42.76 64.87 42.76C63.81 42.76 63.04 42.88 63.04 42.05C63.04 40.34 67.23 40.99 67.23 37.39C67.1557 35.9979 66.7948 34.6362 66.17 33.39C64.22 28.78 63.93 28.2 62.39 28.2L50.76 28.25ZM60.55 25.06C61.62 25.06 62.44 25.12 62.44 24.53C62.3799 23.7624 62.1584 23.0161 61.79 22.34L56.95 11.66C56.6 11.19 56.78 11.19 56.48 11.19C56.36 11.19 56.13 11.25 55.83 11.9L51.29 22.34C50.9216 23.0161 50.7001 23.7624 50.64 24.53C50.64 25.12 51.47 25.06 52.53 25.06H60.55Z" fill="black"/>
<path d="M112.04 34.64C112.04 42.01 118.04 39.77 118.04 41.84C118.04 42.84 117.45 42.72 116.62 42.72C112.49 42.72 109.9 42.48 108.62 42.48C106.26 42.48 101.71 42.72 101.36 42.72C101.18 42.72 100.12 42.84 100.12 41.84C100.12 40.12 104.84 41.42 104.84 34.05V8.04998C104.84 1.79998 98.71 4.21998 98.71 2.04998C98.71 1.68998 98.94 0.920004 100.36 0.920004C100.77 0.920004 104.02 1.15999 108.5 1.15999C109.33 1.15999 113.5 0.980004 117.71 0.920004C125.26 0.810004 132.58 3.75999 132.58 12.37C132.58 19.75 127.09 24.23 120.07 24.23C114.28 24.23 113.99 22.76 113.99 22.52C113.99 22.11 114.11 21.4 114.81 21.4C115.729 21.5699 116.657 21.6868 117.59 21.75C124.73 21.75 125.26 15.09 125.32 13.55C125.38 12.01 124.85 3.39998 115.7 3.39998C113.04 3.39998 112.1 4.57998 112.1 7.23998L112.04 34.64Z" fill="black"/>
<path d="M157.76 0.410004C169.26 0.300004 178.06 7.91 178.06 20.41C178.06 28.67 174.46 43.12 155.63 43.12C143.77 43.12 135.81 35.12 135.81 23.18C135.81 10.26 143.66 0.519994 157.76 0.399994M157.34 40.59C167.49 40.41 170.8 32.5 170.8 22.71C170.8 9.70999 163.6 2.82 155.99 2.94C145.99 3.12 143.06 11.26 143.06 19.82C143.06 28.38 146.78 40.76 157.34 40.59Z" fill="black"/>
<path d="M186.97 8.38C186.97 1.77 180.54 3.94999 180.54 1.82999C180.54 1.23999 181.13 0.940002 181.84 0.940002C184.55 0.940002 185.02 1.17999 188.74 1.17999C192.69 1.17999 196.74 0.940002 200.66 0.940002C213.58 0.940002 214.76 9.26 214.76 11.94C214.808 13.3506 214.523 14.7526 213.929 16.0329C213.335 17.3132 212.448 18.4357 211.34 19.31C209.63 20.67 207.92 21.2 207.92 21.79C207.92 22.15 212.92 30.7 217.18 38.14C217.416 38.4728 217.738 38.7357 218.111 38.9012C218.484 39.0666 218.895 39.1283 219.3 39.08C219.89 39.08 220.48 38.73 221.07 38.73C221.183 38.7203 221.298 38.7343 221.405 38.7711C221.513 38.808 221.612 38.8668 221.696 38.9439C221.779 39.0211 221.846 39.1148 221.892 39.2191C221.937 39.3235 221.96 39.4362 221.96 39.55C221.96 41.38 218.07 42.68 215.71 42.68C211.04 42.68 209.16 38.96 207.33 35.54L202.33 26.22C200.97 23.62 199.91 23.09 196.96 23.09C193.83 23.09 194.19 23.5 194.19 25.57V35.78C194.19 42.09 200.03 39.67 200.03 41.78C200.03 42.31 199.56 42.66 198.2 42.66C197.2 42.66 195.6 42.42 193.12 42.42C189.94 42.42 186.99 42.66 184.04 42.66C183.39 42.66 182.15 42.84 182.15 41.66C182.15 39.77 186.93 41.72 186.93 34.28L186.97 8.38ZM194.23 18.94C194.23 20.42 196.41 20.42 198.18 20.42C207.18 20.42 207.5 17.11 207.5 13.63C207.5 7.85 204.2 3.48001 198.24 3.48001C196.06 3.48001 194.24 3.47999 194.24 7.01999L194.23 18.94Z" fill="black"/>
<path d="M236.12 7.60999C236.12 4.77999 235.53 4.48999 233.12 4.48999H228.12C221.45 4.48999 223.22 12.22 220.57 12.22C219.33 12.22 219.68 10.92 219.8 10.15L220.75 2.35999C220.8 1.76999 220.8 0.950012 221.69 0.950012C227.18 0.950012 231.13 1.17999 239.75 1.17999C248.37 1.17999 252.31 0.950012 257.8 0.950012C258.69 0.950012 258.69 1.76999 258.75 2.35999L259.39 7.79001C259.51 8.50001 260.16 10.79 258.63 10.79C256.27 10.79 258.15 4.24001 251.37 4.48001H246.37C243.96 4.48001 243.37 4.77001 243.37 7.60001V34.25C243.37 41.51 250.93 39.8 250.93 41.45C250.93 42.87 249.75 42.69 248.04 42.69C245.68 42.69 243.73 42.46 239.78 42.46C235.83 42.46 233.88 42.69 231.51 42.69C230.45 42.69 229.45 42.75 229.45 41.45C229.45 39.15 236.12 41.98 236.12 34.96V7.60999Z" fill="black"/>
<path d="M270.39 28.25C269.39 28.25 268.15 28.48 266.79 32.38C266.161 33.867 265.747 35.4361 265.56 37.04C265.56 41.29 271.93 40.34 271.93 41.93C271.93 43.17 270.1 42.76 268.86 42.76C266.97 42.76 265.2 42.52 263.31 42.52C261.42 42.52 259.83 42.76 258.12 42.76C257.29 42.76 256.35 42.88 256.35 42.11C256.35 40.75 259.35 41.11 260.84 37.8L276.84 2.10999C277.25 1.15999 277.54 0.0400085 278.31 0.0400085C278.84 0.0400085 278.96 0.159993 279.73 1.92999L295.66 38.04C297.55 42.23 300.73 39.93 300.73 41.88C300.73 42.88 300.2 42.76 298.61 42.76C296.48 42.76 294.89 42.52 291 42.52C288.4 42.52 286.22 42.76 284.51 42.76C283.44 42.76 282.68 42.88 282.68 42.05C282.68 40.34 286.87 40.99 286.87 37.39C286.792 35.9974 286.427 34.6358 285.8 33.39C283.86 28.78 283.56 28.2 282.03 28.2L270.39 28.25ZM280.19 25.06C281.25 25.06 282.08 25.12 282.08 24.53C282.015 23.7633 281.794 23.0179 281.43 22.34L276.59 11.66C276.24 11.19 276.41 11.19 276.12 11.19C276 11.19 275.76 11.25 275.47 11.9L270.93 22.34C270.562 23.0161 270.34 23.7624 270.28 24.53C270.28 25.12 271.1 25.06 272.17 25.06H280.19Z" fill="black"/>
<path d="M6.49001 62.14C6.49001 56.14 0.180008 58.07 0.180008 55.89C0.20944 55.6292 0.33369 55.3883 0.529129 55.2132C0.724568 55.038 0.977563 54.9408 1.24001 54.94C2.36001 54.94 3.54 55.18 9.38 55.18C12.45 55.18 15.46 54.94 18.53 54.94C26.43 54.94 43.6 55.89 43.6 74.36C43.6 91.41 28.2 96.72 21.89 96.72C14.99 96.72 11.74 96.48 9.56001 96.48C7.73001 96.48 5.96 96.72 4.13 96.72C3.13 96.72 1.77 96.96 1.77 95.9C1.77 93.65 6.49001 95.9 6.49001 90.58V62.14ZM13.75 90.14C13.75 94.04 18.11 94.45 20.41 94.45C29.62 94.45 36.17 88.45 36.17 76.22C36.17 70.61 33.28 57.16 18.53 57.16C14.1 57.16 13.75 58.63 13.75 62.7V90.14Z" fill="black"/>
<path d="M59.06 61.25C59.06 67.15 52.45 72.99 49.5 72.99C49.3981 73.0127 49.2922 73.0093 49.192 72.9802C49.0918 72.951 49.0006 72.897 48.9268 72.8232C48.853 72.7494 48.799 72.6582 48.7698 72.558C48.7407 72.4578 48.7373 72.3519 48.76 72.25C48.76 71.01 53.19 69.54 53.19 65.41C53.19 61.63 49 60.69 49 59.41C49 58.82 49.88 58.11 51.36 56.81C52.3 55.93 53.54 54.45 54.54 54.45C56.67 54.45 59.03 57.76 59.03 61.24" fill="black"/>
<path d="M76.99 82.25C75.99 82.25 74.75 82.48 73.39 86.37C72.7619 87.8609 72.3478 89.4331 72.16 91.04C72.16 95.29 78.53 94.34 78.53 95.93C78.53 97.17 76.7 96.76 75.46 96.76C73.57 96.76 71.8 96.52 69.91 96.52C68.02 96.52 66.43 96.76 64.72 96.76C63.89 96.76 62.95 96.88 62.95 96.11C62.95 94.75 65.95 95.11 67.44 91.8L83.44 56.11C83.85 55.16 84.14 54.04 84.91 54.04C85.44 54.04 85.56 54.16 86.33 55.93L102.26 92.04C104.15 96.23 107.33 93.93 107.33 95.87C107.33 96.87 106.8 96.76 105.21 96.76C103.08 96.76 101.49 96.52 97.6 96.52C95 96.52 92.82 96.76 91.11 96.76C90.04 96.76 89.28 96.88 89.28 96.05C89.28 94.34 93.47 94.99 93.47 91.39C93.3917 89.9974 93.0275 88.6358 92.4 87.39C90.46 82.78 90.16 82.2 88.63 82.2L76.99 82.25ZM86.79 79.06C87.85 79.06 88.68 79.12 88.68 78.53C88.6153 77.7633 88.394 77.0179 88.03 76.34L83.19 65.66C82.84 65.19 83.01 65.19 82.72 65.19C82.6 65.19 82.36 65.25 82.07 65.9L77.53 76.34C77.1616 77.0161 76.9401 77.7624 76.88 78.53C76.88 79.12 77.7 79.06 78.77 79.06H86.79Z" fill="black"/>
<path d="M147.76 67.63C147.82 68.22 148.05 69.58 147.05 69.58C146.05 69.58 145.69 68.34 145.28 67.58C142.33 61.92 137.14 56.78 130.28 56.78C121.61 56.78 116.83 65.04 116.83 72.95C116.83 81.27 121.55 92.95 132.83 92.95C141.98 92.95 145.99 85.22 147.52 85.22C147.82 85.22 148.35 85.52 148.35 85.87C148.35 88.23 142.09 97.14 129.53 97.14C112.24 97.14 109.58 82.04 109.58 77.38C109.58 67.46 115.66 54.38 130.53 54.38C137.67 54.38 142.21 57.98 143.98 57.98C145.1 57.98 145.16 56.04 145.98 56.04C146.27 56.04 146.69 56.09 146.69 56.39L147.76 67.63Z" fill="black"/>
<path d="M164.96 97.07C164.531 96.7069 163.992 96.4991 163.43 96.48C158.24 96.48 158.43 104.33 157.17 104.33C155.91 104.33 155.82 103.27 155.82 102.15C155.82 96.07 159.71 94.71 159.71 93.95C159.71 92.71 152.16 88.7 152.16 77.19C152.16 64.27 160.01 54.53 174.16 54.41C185.66 54.29 194.46 61.91 194.46 74.41C194.46 93.17 179.11 96.24 179.11 97.18C179.11 98.36 186.11 102.32 189.5 102.32C192.15 102.32 193.34 100.66 194.22 100.66C194.57 100.66 194.75 101.02 194.75 101.43C194.75 102.32 189.91 107.21 184.96 107.21C183.19 107.21 180.77 107.1 176.58 104.44L164.96 97.07ZM173.7 94.89C186.03 94.89 187.15 82.56 187.15 76.72C187.15 63.72 179.95 56.83 172.34 56.95C162.34 57.13 159.42 65.27 159.42 73.83C159.42 82.39 163.19 94.89 173.7 94.89Z" fill="black"/>
<path d="M238.24 75.18C238.24 87.18 234.88 97.13 218.6 97.13C207.6 97.13 201.66 92 201.66 80.55V61.32C201.66 56.24 195.52 58.13 195.52 55.89C195.52 55.12 196.29 54.94 196.76 54.94C197.53 54.94 201.96 55.18 204.91 55.18C207.86 55.18 212.1 54.94 213.23 54.94C213.76 54.94 213.87 55.42 213.87 55.77C213.87 57.77 208.92 54.65 208.92 64.33V77.13C208.92 86.13 211.28 93.65 221.84 93.65C233.58 93.65 235.12 84.33 235.12 74.36V62.67C235.12 55.89 227.86 57.72 227.86 55.59C227.86 54.65 228.86 54.94 229.63 54.94C231.34 55.06 232.93 55.18 234.63 55.18C236.57 55.18 238.4 55.06 241.35 54.94C242.06 54.94 242.41 55.06 242.41 55.71C242.41 57.3 238.28 55.18 238.28 61.85L238.24 75.18Z" fill="black"/>
<path d="M259.07 82.25C258.07 82.25 256.83 82.48 255.47 86.37C254.834 87.8589 254.416 89.4318 254.23 91.04C254.23 95.29 260.6 94.34 260.6 95.93C260.6 97.17 258.77 96.76 257.53 96.76C255.64 96.76 253.88 96.52 251.99 96.52C250.1 96.52 248.51 96.76 246.79 96.76C245.97 96.76 245.02 96.88 245.02 96.11C245.02 94.75 248.02 95.11 249.51 91.8L265.51 56.11C265.92 55.16 266.22 54.04 266.98 54.04C267.52 54.04 267.63 54.16 268.4 55.93L284.33 92.04C286.22 96.23 289.41 93.93 289.41 95.87C289.41 96.87 288.88 96.76 287.28 96.76C285.16 96.76 283.56 96.52 279.67 96.52C277.07 96.52 274.89 96.76 273.18 96.76C272.12 96.76 271.35 96.88 271.35 96.05C271.35 94.34 275.54 94.99 275.54 91.39C275.466 89.9979 275.105 88.6362 274.48 87.39C272.48 82.78 272.24 82.2 270.7 82.2L259.07 82.25ZM268.86 79.06C269.92 79.06 270.75 79.12 270.75 78.53C270.69 77.7624 270.468 77.0161 270.1 76.34L265.26 65.66C264.91 65.19 265.09 65.19 264.79 65.19C264.67 65.19 264.44 65.25 264.14 65.9L259.6 76.34C259.232 77.0161 259.01 77.7624 258.95 78.53C258.95 79.12 259.78 79.06 260.84 79.06H268.86Z" fill="black"/>
<path d="M9.44 110.22H183.32" stroke="black" stroke-width="2" stroke-miterlimit="10"/>
<path d="M14.26 132.45C13.7013 132.479 13.1426 132.393 12.6184 132.197C12.0943 132.001 11.616 131.7 11.2129 131.312C10.8099 130.924 10.4907 130.457 10.2752 129.941C10.0597 129.424 9.95243 128.869 9.96001 128.31C9.93403 127.701 10.0328 127.094 10.2502 126.524C10.4676 125.955 10.7991 125.437 11.2242 125C11.6494 124.564 12.1593 124.219 12.7226 123.987C13.286 123.754 13.8908 123.64 14.5 123.65C15.0701 123.611 15.6421 123.691 16.1799 123.884C16.7177 124.077 17.2098 124.38 17.6249 124.773C18.0401 125.165 18.3695 125.64 18.5924 126.166C18.8153 126.692 18.9269 127.259 18.92 127.83C18.9474 128.447 18.8453 129.064 18.6202 129.639C18.3952 130.215 18.0522 130.737 17.6133 131.172C17.1744 131.607 16.6494 131.946 16.0718 132.166C15.4943 132.386 14.8772 132.483 14.26 132.45ZM12.08 127.17C12.02 128.49 12.66 131.75 14.88 131.75C16.44 131.75 16.88 130.59 16.88 129.23C16.88 127.63 16.3 124.29 14.14 124.29C12.4 124.29 12.14 125.73 12.06 127.17" fill="black"/>
<path d="M21.02 125.83C21.02 124.83 19.74 125.43 19.74 124.83C19.74 124.51 20.04 124.49 20.74 124.31C21.4989 124.133 22.227 123.843 22.9 123.45C23.14 123.45 23.14 123.59 23.14 123.85V124.99C23.4346 124.544 23.8403 124.182 24.3172 123.94C24.7941 123.698 25.3258 123.584 25.86 123.61C28.02 123.61 28.86 125.39 28.86 127.33V130.57C28.86 131.83 30.1 131.57 30.1 131.97C30.1 132.21 29.98 132.27 29.64 132.27C29 132.27 28.36 132.19 27.94 132.19C27.52 132.19 26.72 132.27 26.48 132.27C26.24 132.27 25.82 132.37 25.82 132.01C25.82 131.65 26.74 131.49 26.74 130.75V127.35C26.74 126.05 26.28 124.91 24.74 124.91C23.42 124.91 23.02 125.67 23.02 126.83V130.53C23.02 131.67 24.64 131.53 24.64 131.97C24.64 132.15 24.5 132.27 24.02 132.27C23.8 132.27 23.08 132.19 22.02 132.19C21.32 132.19 20.62 132.27 20.02 132.27C19.82 132.27 19.8 132.15 19.8 132.05C19.8 131.47 20.86 132.05 20.86 130.35L21.02 125.83Z" fill="black"/>
<path d="M42.12 120.41C42.12 119.41 41.92 119.35 41.12 119.35H39.44C37.18 119.35 37.78 121.97 36.88 121.97C36.46 121.97 36.58 121.53 36.62 121.27L36.94 118.63C36.94 118.43 36.94 118.15 37.26 118.15C39.12 118.15 40.46 118.23 43.38 118.23C46.3 118.23 47.64 118.15 49.5 118.15C49.8 118.15 49.8 118.43 49.82 118.63L50.04 120.47C50.04 120.71 50.3 121.47 49.78 121.47C48.98 121.47 49.62 119.25 47.32 119.33H45.62C44.8 119.33 44.62 119.43 44.62 120.39V129.39C44.62 131.85 47.18 131.27 47.18 131.83C47.18 132.39 46.78 132.25 46.18 132.25C45.38 132.25 44.72 132.17 43.38 132.17C42.04 132.17 41.38 132.25 40.58 132.25C40.22 132.25 39.88 132.25 39.88 131.83C39.88 131.05 42.14 132.01 42.14 129.63L42.12 120.41Z" fill="black"/>
<path d="M60 130.61C60 131.97 61.24 131.43 61.24 132.13C61.24 132.178 61.221 132.224 61.1873 132.257C61.1535 132.291 61.1077 132.31 61.06 132.31C60.34 132.31 59.6 132.23 58.88 132.23C58.38 132.23 57.88 132.31 57.22 132.31C57.12 132.31 56.9 132.37 56.9 132.11C56.9 131.85 57.9 131.67 57.9 130.57V127.65C57.9 126.31 57.62 124.91 55.9 124.91C55.3966 124.938 54.9174 125.136 54.54 125.47C54.24 125.73 54.16 125.75 54.16 126.13V130.45C54.16 131.83 55.74 131.51 55.74 132.07C55.74 132.39 55.4 132.31 54.84 132.31C54.28 132.31 53.84 132.23 52.84 132.23C52.24 132.23 52.02 132.31 51.62 132.31C51.46 132.31 51.02 132.31 51.02 132.09C51.02 131.57 52.08 131.79 52.08 130.93V119.93C52.08 118.75 50.76 119.39 50.76 118.81C50.76 118.47 51.06 118.55 52.34 118.11C53.88 117.67 53.82 117.31 54.16 117.31C54.5 117.31 54.16 117.87 54.16 118.99V125.09C54.4809 124.655 54.8957 124.298 55.3735 124.045C55.8513 123.792 56.3799 123.651 56.92 123.63C58.86 123.63 59.92 124.79 59.92 127.11L60 130.61Z" fill="black"/>
<path d="M64.76 127.41C64.4 127.41 64.32 127.27 64.32 127.91C64.2985 128.323 64.3593 128.736 64.499 129.126C64.6387 129.515 64.8544 129.873 65.1335 130.178C65.4127 130.483 65.7497 130.73 66.1251 130.903C66.5005 131.077 66.9066 131.175 67.32 131.19C68.5 131.19 69.48 130.13 69.8 130.13C69.88 130.13 70 130.13 70 130.37C70 130.87 68.32 132.45 66.26 132.45C65.7308 132.475 65.2024 132.388 64.709 132.195C64.2157 132.002 63.7686 131.707 63.3969 131.33C63.0251 130.952 62.7371 130.501 62.5515 130.005C62.366 129.508 62.2871 128.979 62.32 128.45C62.32 126.15 63.62 123.65 66.2 123.65C67.131 123.623 68.0375 123.951 68.7357 124.567C69.4339 125.184 69.8716 126.043 69.96 126.97C69.96 127.41 69.84 127.41 69.72 127.41H64.76ZM67.3 126.71C67.64 126.71 67.76 126.71 67.76 126.17C67.7709 125.673 67.5864 125.191 67.2461 124.828C66.9059 124.466 66.4369 124.251 65.94 124.23C64.74 124.23 64.3 125.41 64.3 126.33C64.3 126.65 64.3 126.71 64.4 126.71H67.3Z" fill="black"/>
<path d="M89.82 122.81C89.82 123.07 89.7 123.17 89.32 123.17C88.94 123.17 88.88 118.81 83.62 118.81C81.76 118.81 79.12 120.03 79.12 125.09C79.12 127.83 80.52 131.47 83.76 131.47C87.36 131.47 87.42 129.79 87.42 128.63C87.42 125.51 85.04 126.87 85.04 126.11C85.04 125.53 85.68 125.69 86.04 125.69C86.98 125.69 87.9 125.77 88.84 125.77C89.58 125.77 90.28 125.69 91 125.69C91.1 125.69 91.22 125.77 91.22 125.97C91.22 126.83 89.84 125.75 89.84 128.31C89.84 129.13 89.9 129.69 89.9 129.97C89.9 130.25 89.9 130.39 89.7 130.49C87.7951 131.662 85.6319 132.348 83.4 132.49C77.54 132.49 76.64 127.37 76.64 125.79C76.64 122.43 78.7 118.01 83.74 118.01C86.52 118.01 88.2 119.31 88.74 119.31C89.28 119.31 89.22 118.75 89.54 118.75C89.86 118.75 89.84 119.19 89.84 119.51L89.82 122.81Z" fill="black"/>
<path d="M95.52 130.15C95.52 131.99 97.38 131.39 97.38 131.97C97.3827 132.012 97.3771 132.054 97.3635 132.094C97.3498 132.134 97.3285 132.171 97.3006 132.202C97.2728 132.234 97.2389 132.26 97.201 132.278C97.1632 132.297 97.1221 132.307 97.08 132.31C96.6 132.31 95.46 132.23 94.8 132.23C93.86 132.23 93.28 132.31 92.8 132.31C92.54 132.31 92.46 132.31 92.46 132.11C92.46 131.49 93.46 132.01 93.46 130.53V125.83C93.46 124.83 92.18 125.43 92.18 124.83C92.18 124.51 92.48 124.49 93.18 124.31C93.9389 124.133 94.667 123.843 95.34 123.45C95.58 123.45 95.58 123.59 95.58 123.85V125.39C96.46 124.39 97.18 123.61 97.68 123.61C98.18 123.61 99.26 124.51 99.26 124.89C99.26 125.63 98.58 126.57 98.26 126.57C97.94 126.57 97.76 125.77 96.66 125.77C95.56 125.77 95.66 127.29 95.66 127.45L95.52 130.15Z" fill="black"/>
<path d="M106.76 130.03C106.76 131.03 106.76 131.27 107.3 131.27C107.54 131.27 107.8 131.17 107.94 131.17C108.08 131.17 108.16 131.25 108.16 131.35C108.16 131.75 106.94 132.45 106.22 132.45C105.891 132.444 105.575 132.315 105.335 132.09C105.095 131.865 104.947 131.558 104.92 131.23C104.029 131.973 102.919 132.401 101.76 132.45C101.51 132.46 101.262 132.418 101.029 132.327C100.797 132.236 100.585 132.098 100.409 131.921C100.232 131.745 100.094 131.533 100.003 131.301C99.9121 131.068 99.8702 130.82 99.88 130.57C99.88 128.11 102.54 127.77 104.6 127.25C104.6 125.53 104.46 124.31 102.88 124.31C102.12 124.31 101.96 124.51 101.96 125.43C101.96 126.35 100.68 126.37 100.54 126.37C100.4 126.37 100.02 126.37 100.02 125.95C100.02 124.21 102.28 123.65 103.68 123.65C105.74 123.65 106.68 124.57 106.68 126.59L106.76 130.03ZM104.64 128.65C104.64 128.11 104.64 127.93 104.5 127.93C103.72 127.93 102.14 128.61 102.14 129.93C102.14 130.25 102.14 131.25 103.2 131.25C103.64 131.25 104.64 131.03 104.64 130.57V128.65Z" fill="black"/>
<path d="M109.92 125.83C109.92 124.83 108.64 125.43 108.64 124.83C108.64 124.51 108.94 124.49 109.64 124.31C110.399 124.133 111.127 123.843 111.8 123.45C112.04 123.45 112.04 123.59 112.04 123.85V124.99C112.339 124.551 112.747 124.197 113.224 123.962C113.7 123.727 114.23 123.62 114.76 123.65C116.92 123.65 117.76 125.43 117.76 127.37V130.61C117.76 131.87 119 131.61 119 132.01C119 132.25 118.88 132.31 118.54 132.31C117.9 132.31 117.26 132.23 116.84 132.23C116.42 132.23 115.62 132.31 115.38 132.31C115.14 132.31 114.72 132.41 114.72 132.05C114.72 131.69 115.64 131.53 115.64 130.79V127.39C115.64 126.09 115.18 124.95 113.64 124.95C112.32 124.95 111.92 125.71 111.92 126.87V130.57C111.92 131.71 113.54 131.57 113.54 132.01C113.54 132.19 113.4 132.31 112.92 132.31C112.7 132.31 111.98 132.23 110.92 132.23C110.22 132.23 109.52 132.31 108.92 132.31C108.72 132.31 108.7 132.19 108.7 132.09C108.7 131.51 109.76 132.09 109.76 130.39L109.92 125.83Z" fill="black"/>
<path d="M125.76 120.13C125.76 118.65 124.42 119.53 124.42 118.83C124.42 118.29 125.48 118.61 127.36 117.47C127.458 117.392 127.576 117.343 127.7 117.33C127.92 117.33 127.88 117.55 127.88 117.87V130.03C127.88 131.69 129.22 130.83 129.22 131.47C129.22 131.87 127.86 131.87 126.84 132.21C126.574 132.313 126.3 132.394 126.02 132.45C125.76 132.45 125.76 132.15 125.76 131.13C125.409 131.536 124.976 131.863 124.491 132.09C124.005 132.318 123.476 132.44 122.94 132.45C120.2 132.45 119.54 129.45 120 127.31C120.136 126.34 120.602 125.446 121.32 124.78C122.037 124.113 122.963 123.714 123.94 123.65C124.585 123.617 125.223 123.792 125.76 124.15V120.13ZM125.76 125.71C125.54 125.318 125.221 124.99 124.835 124.758C124.449 124.527 124.01 124.4 123.56 124.39C121.98 124.39 121.62 126.17 121.62 127.39C121.62 128.61 122.42 131.05 124.1 131.05C124.602 131.058 125.093 130.904 125.5 130.61C125.82 130.33 125.76 130.09 125.76 129.69V125.71Z" fill="black"/>
<path d="M148.46 122.45C148.46 122.65 148.56 123.11 148.22 123.11C147.88 123.11 147.76 122.69 147.62 122.43C146.62 120.51 144.86 118.77 142.54 118.77C139.6 118.77 137.98 121.57 137.98 124.25C137.98 126.93 139.58 131.03 143.4 131.03C146.5 131.03 147.86 128.41 148.4 128.41C148.5 128.41 148.68 128.51 148.68 128.63C148.68 129.43 146.56 132.45 142.3 132.45C136.44 132.45 135.54 127.33 135.54 125.75C135.54 122.39 137.6 117.97 142.64 117.97C145.06 117.97 146.64 119.19 147.2 119.19C147.58 119.19 147.6 118.53 147.88 118.53C147.98 118.53 148.12 118.53 148.12 118.65L148.46 122.45Z" fill="black"/>
<path d="M156.76 130.03C156.76 131.03 156.76 131.27 157.3 131.27C157.54 131.27 157.8 131.17 157.94 131.17C158.08 131.17 158.16 131.25 158.16 131.35C158.16 131.75 156.94 132.45 156.22 132.45C155.891 132.444 155.575 132.315 155.335 132.09C155.095 131.865 154.947 131.558 154.92 131.23C154.029 131.973 152.919 132.401 151.76 132.45C151.51 132.46 151.262 132.418 151.029 132.327C150.797 132.236 150.585 132.098 150.409 131.921C150.232 131.745 150.094 131.533 150.003 131.301C149.912 131.068 149.87 130.82 149.88 130.57C149.88 128.11 152.54 127.77 154.6 127.25C154.6 125.53 154.46 124.31 152.88 124.31C152.12 124.31 151.96 124.51 151.96 125.43C151.96 126.35 150.68 126.37 150.54 126.37C150.4 126.37 150.02 126.37 150.02 125.95C150.02 124.21 152.28 123.65 153.68 123.65C155.74 123.65 156.68 124.57 156.68 126.59L156.76 130.03ZM154.64 128.65C154.64 128.11 154.64 127.93 154.5 127.93C153.72 127.93 152.14 128.61 152.14 129.93C152.14 130.25 152.14 131.25 153.2 131.25C153.64 131.25 154.64 131.03 154.64 130.57V128.65Z" fill="black"/>
<path d="M159.92 125.83C159.92 124.83 158.64 125.43 158.64 124.83C158.64 124.51 158.94 124.49 159.64 124.31C160.399 124.133 161.127 123.843 161.8 123.45C162.04 123.45 162.04 123.59 162.04 123.85V124.99C162.339 124.551 162.747 124.197 163.224 123.962C163.7 123.727 164.23 123.62 164.76 123.65C166.92 123.65 167.76 125.43 167.76 127.37V130.61C167.76 131.87 169 131.61 169 132.01C169 132.25 168.88 132.31 168.54 132.31C167.9 132.31 167.26 132.23 166.84 132.23C166.42 132.23 165.62 132.31 165.38 132.31C165.14 132.31 164.72 132.41 164.72 132.05C164.72 131.69 165.64 131.53 165.64 130.79V127.39C165.64 126.09 165.18 124.95 163.64 124.95C162.32 124.95 161.92 125.71 161.92 126.87V130.57C161.92 131.71 163.54 131.57 163.54 132.01C163.54 132.19 163.4 132.31 162.92 132.31C162.7 132.31 161.98 132.23 160.92 132.23C160.22 132.23 159.52 132.31 158.92 132.31C158.72 132.31 158.7 132.19 158.7 132.09C158.7 131.51 159.76 132.09 159.76 130.39L159.92 125.83Z" fill="black"/>
<path d="M176.76 130.03C176.76 131.03 176.76 131.27 177.3 131.27C177.54 131.27 177.8 131.17 177.94 131.17C178.08 131.17 178.16 131.25 178.16 131.35C178.16 131.75 176.94 132.45 176.22 132.45C175.891 132.444 175.575 132.315 175.335 132.09C175.095 131.865 174.947 131.558 174.92 131.23C174.029 131.973 172.919 132.401 171.76 132.45C171.51 132.46 171.262 132.418 171.029 132.327C170.797 132.236 170.585 132.098 170.409 131.921C170.232 131.745 170.094 131.533 170.003 131.301C169.912 131.068 169.87 130.82 169.88 130.57C169.88 128.11 172.54 127.77 174.6 127.25C174.6 125.53 174.46 124.31 172.88 124.31C172.12 124.31 171.96 124.51 171.96 125.43C171.96 126.35 170.68 126.37 170.54 126.37C170.4 126.37 170.02 126.37 170.02 125.95C170.02 124.21 172.28 123.65 173.68 123.65C175.74 123.65 176.68 124.57 176.68 126.59L176.76 130.03ZM174.64 128.65C174.64 128.11 174.64 127.93 174.5 127.93C173.72 127.93 172.14 128.61 172.14 129.93C172.14 130.25 172.14 131.25 173.2 131.25C173.64 131.25 174.64 131.03 174.64 130.57V128.65Z" fill="black"/>
<path d="M179.98 119.95C179.98 118.77 178.66 119.41 178.66 118.83C178.66 118.49 178.96 118.57 180.24 118.13C181.78 117.69 181.72 117.33 182.06 117.33C182.4 117.33 182.06 117.89 182.06 119.01V130.47C182.06 131.89 183.54 131.61 183.54 132.05C183.54 132.25 183.46 132.31 183.12 132.31C182.78 132.31 181.48 132.23 180.88 132.23C180.28 132.23 179.52 132.31 179.1 132.31C178.94 132.31 178.76 132.31 178.76 132.11C178.76 131.49 179.94 132.29 179.94 130.41L179.98 119.95Z" fill="black"/>
</g>
</g>
<defs>
<clipPath id="clip0_0_38">
<rect width="300.73" height="132.45" fill="white"/>
</clipPath>
</defs>
</svg>
