<svg width="50" height="50" viewBox="0 0 50 50" fill="none" xmlns="http://www.w3.org/2000/svg">
<path d="M12.5 15.5503H1.5625C0.865625 15.5503 0.25625 16.0097 0.0625 16.6784C-0.13125 17.3503 0.140625 18.0659 0.73125 18.4347C0.74375 18.444 1.8125 19.1409 2.64062 20.4097C0.93125 22.5815 0 25.2503 0 28.0503C0 34.944 5.60625 40.5503 12.5 40.5503C19.3938 40.5503 25 34.944 25 28.0503C25 21.1565 19.3938 15.5503 12.5 15.5503ZM12.5 37.4253C7.33125 37.4253 3.125 33.219 3.125 28.0503C3.125 25.669 4.02813 23.4097 5.6625 21.6909C6.10313 21.2284 6.21875 20.5503 5.95625 19.969C5.74375 19.5003 5.5 19.0659 5.24063 18.6753H12.5C17.6688 18.6753 21.875 22.8815 21.875 28.0503C21.875 33.219 17.6688 37.4253 12.5 37.4253Z" fill="#A65C23"/>
<path d="M29.4469 33.0378C28.75 32.5347 27.775 32.6784 27.2625 33.3847L25.0812 36.3909L22.7031 33.3409C22.1718 32.6597 21.1875 32.5347 20.5093 33.0691C19.8312 33.6003 19.7093 34.5816 20.2406 35.2628L23.8968 39.9503C24.1937 40.3284 24.6468 40.5503 25.1281 40.5503C25.1375 40.5503 25.1468 40.5503 25.1562 40.5503C25.6468 40.5409 26.1062 40.3034 26.3906 39.9066L29.7906 35.2191C30.2969 34.5222 30.1469 33.5441 29.4469 33.0378Z" fill="#A65C23"/>
<path d="M41.6782 15.9595C32.172 7.28135 17.8282 7.27822 8.32199 15.9595C7.68449 16.5407 7.63762 17.5282 8.22199 18.1657C8.80324 18.8063 9.79074 18.847 10.4282 18.2657C18.7376 10.6813 31.2657 10.6813 39.572 18.2657C39.872 18.5407 40.2501 18.6751 40.6251 18.6751C41.0501 18.6751 41.472 18.5032 41.7782 18.1657C42.3626 17.5282 42.3157 16.5407 41.6782 15.9595Z" fill="#A65C23"/>
<path d="M12.5 21.8003C9.05312 21.8003 6.25 24.6034 6.25 28.0503C6.25 31.4972 9.05312 34.3003 12.5 34.3003C15.9469 34.3003 18.75 31.4972 18.75 28.0503C18.75 24.6034 15.9469 21.8003 12.5 21.8003ZM12.5 31.1753C10.7781 31.1753 9.375 29.7753 9.375 28.0503C9.375 26.3284 10.7781 24.9253 12.5 24.9253C14.2219 24.9253 15.625 26.3284 15.625 28.0503C15.625 29.7753 14.2219 31.1753 12.5 31.1753Z" fill="#A65C23"/>
<path d="M12.5625 26.4878H12.5312C11.6687 26.4878 10.9844 27.1878 10.9844 28.0503C10.9844 28.9128 11.7 29.6128 12.5625 29.6128C13.425 29.6128 14.125 28.9128 14.125 28.0503C14.125 27.1878 13.425 26.4878 12.5625 26.4878Z" fill="#A65C23"/>
<path d="M47.3563 20.4097C48.1844 19.144 49.2594 18.4378 49.2687 18.4347C49.8594 18.0628 50.1312 17.3472 49.9375 16.6784C49.7469 16.0097 49.1344 15.5503 48.4375 15.5503H37.5C30.6062 15.5503 25 21.1565 25 28.0503C25 34.944 30.6062 40.5503 37.5 40.5503C44.3938 40.5503 50 34.944 50 28.0503C50 25.2534 49.0688 22.5815 47.3563 20.4097ZM37.5 37.4253C32.3312 37.4253 28.125 33.219 28.125 28.0503C28.125 22.8815 32.3312 18.6753 37.5 18.6753H44.7594C44.5 19.0659 44.2563 19.5003 44.0437 19.969C43.7844 20.5503 43.8969 21.2315 44.3375 21.6909C45.975 23.4128 46.875 25.669 46.875 28.0503C46.875 33.219 42.6688 37.4253 37.5 37.4253Z" fill="#A65C23"/>
<path d="M37.5 21.8003C34.0531 21.8003 31.25 24.6034 31.25 28.0503C31.25 31.4972 34.0531 34.3003 37.5 34.3003C40.9469 34.3003 43.75 31.4972 43.75 28.0503C43.75 24.6034 40.9469 21.8003 37.5 21.8003ZM37.5 31.1753C35.775 31.1753 34.375 29.7753 34.375 28.0503C34.375 26.3284 35.775 24.9253 37.5 24.9253C39.225 24.9253 40.625 26.3284 40.625 28.0503C40.625 29.7753 39.225 31.1753 37.5 31.1753Z" fill="#A65C23"/>
<path d="M37.5625 26.4878H37.5312C36.6687 26.4878 35.9844 27.1878 35.9844 28.0503C35.9844 28.9128 36.7031 29.6128 37.5625 29.6128C38.425 29.6128 39.125 28.9128 39.125 28.0503C39.125 27.1878 38.425 26.4878 37.5625 26.4878Z" fill="#A65C23"/>
</svg>
